<?xml version="1.0" encoding="UTF-8"?>
<svg id="Calque_1" data-name="Calque 1" xmlns="http://www.w3.org/2000/svg" version="1.1" viewBox="0 0 24 24">
  <defs>
    <style>
      .cls-1 {
        fill: #00609c;
        stroke-width: 0px;
      }
    </style>
  </defs>
  <polygon class="cls-1" points="15.7 11.7 13.5 9.5 14.2 8.8 15.7 10.3 18.8 7.2 19.5 7.9 15.7 11.7"/>
  <polygon class="cls-1" points="19 6.3 19 5.2 6.2 5.2 6.2 4.2 5.1 4.2 5.1 19.5 6.2 19.5 6.2 18.3 12.1 18.3 12.1 17.2 6.2 17.2 6.2 14.3 15.7 14.3 15.7 13.2 6.2 13.2 6.2 10.3 12.7 10.3 12.7 10.3 12 9.5 12.3 9.2 6.2 9.2 6.2 6.3 19 6.3"/>
</svg>