<?xml version="1.0" encoding="utf-8"?>
<!-- Generator: Adobe Illustrator 15.0.0, SVG Export Plug-In . SVG Version: 6.00 Build 0)  -->
<!DOCTYPE svg PUBLIC "-//W3C//DTD SVG 1.1//EN" "http://www.w3.org/Graphics/SVG/1.1/DTD/svg11.dtd">
<svg version="1.1" id="Calque_1" xmlns="http://www.w3.org/2000/svg" xmlns:xlink="http://www.w3.org/1999/xlink" x="0px" y="0px"
	 width="24px" height="24px" viewBox="0 0 24 24" enable-background="new 0 0 24 24" xml:space="preserve">
<path fill="none" stroke="#007CB7" stroke-miterlimit="10" d="M19.449,23.359H4.551c-0.745,0-1.368-0.623-1.368-1.366V2.008
	c0-0.745,0.623-1.368,1.368-1.368h9.561l6.705,6.704v14.648C20.816,22.736,20.193,23.359,19.449,23.359z"/>
<rect x="6.919" y="12" display="none" fill="#007CB7" width="10.162" height="2.544"/>
<rect x="6.919" y="17.081" display="none" fill="#007CB7" width="10.162" height="2.544"/>
<polygon fill="#007CB7" points="19.939,8.122 13.27,8.122 13.27,1.451 "/>
<g>
	<path fill="#007CB7" d="M17.771,14.966c-0.115-1-0.469-1.885-1.061-2.653c-0.945-1.299-2.189-2.063-3.775-2.36
		c-0.299-0.056-0.652-0.056-0.94-0.116h-0.066c-0.287,0.061-0.591,0.061-0.879,0.116c-3.013,0.476-5.19,3.306-4.837,6.368
		c0.177,1.476,0.763,2.714,1.824,3.659c1.302,1.178,2.83,1.647,4.544,1.531c1.299-0.116,2.477-0.646,3.422-1.592
		C17.418,18.564,18.01,16.912,17.771,14.966z M16.529,17.973c-0.113-0.237-0.355-0.591-0.41-0.945c-0.115-0.47-0.412,0-0.412,0.299
		c0,0.293-0.24,0.531-0.594,0.056c-0.408-0.409-0.467-0.354-0.592-0.354c-0.115,0-0.354,0.299-0.293,1.653
		c0.061,0.945,0.414,1.122,0.646,1.178c-0.469,0.298-1,0.591-1.592,0.707c-2.299,0.592-4.593-0.47-5.712-2.531
		c-1.003-1.946-0.528-4.13,0.533-5.368c0,0.238,0.055,0.415,0.055,0.592c0.062,0.53,0,1.062-0.115,1.592c0,0.116,0,0.232,0,0.354
		c0,0.059,0.115,0.116,0.177,0.116c0.063,0,0.116-0.058,0.18-0.116c0.058-0.121,0.058-0.237,0.058-0.354c0-0.061,0-0.18,0-0.298
		c0.056,0.061,0.116,0.121,0.178,0.177c0.109,0.121,0.227,0.237,0.351,0.414c0.058,0.061,0.113,0.116,0.113,0.238
		c0,0.177,0.061,0.231,0.183,0.409c0.115,0.121,0.115,0.298,0.177,0.475c0,0.059,0.061,0.116,0.061,0.18
		c0.05,0.113,0.175,0.229,0.354,0.229c0.176,0,0.231,0.061,0.231,0.238c-0.058,0-0.116,0-0.116,0c-0.237,0-0.295,0.115-0.295,0.354
		c0,0.414,0.18,0.823,0.467,1.122c0.061,0.056,0.182,0.177,0.24,0.232c0.18,0.177,0.229,0.414,0.18,0.707
		c-0.066,0.122-0.121,0.238-0.121,0.354c0,0.121,0,0.298,0,0.414c0.055,0.116,0,0.415,0.176,0.415c0.238-0.062,0.415,0,0.415-0.299
		c0-0.056,0-0.056,0-0.116c-0.066-0.237,0.237-1,0.47-1.122c0.172-0.116,0.354-0.232,0.476-0.354
		c0.232-0.177,0.293-0.47,0.232-0.708c-0.058-0.293,0-0.47,0.177-0.646c0.177-0.177,0.298-0.415,0.298-0.646
		c0-0.238-0.18-0.476-0.415-0.476c-0.116,0-0.237,0.058-0.354,0.121c-0.177,0.056-0.354,0.116-0.47,0.177
		c-0.238,0.056-0.354-0.121-0.476-0.298c-0.056-0.177-0.116-0.177-0.232-0.056c-0.122,0.056-0.237,0.177-0.354,0.232
		c-0.122,0.061-0.237,0.061-0.299-0.056c-0.058-0.061-0.116-0.121-0.231-0.177c-0.066-0.061-0.122-0.061-0.18-0.061
		c-0.059-0.061-0.125-0.116-0.125-0.237c0-0.056,0.125-0.178,0.183-0.178c0.122-0.055,0.296-0.055,0.409-0.116
		c0.061,0,0.182-0.061,0.24-0.061c0.113-0.055,0.113-0.116,0-0.177c-0.059,0-0.059-0.056-0.125-0.056
		c-0.229-0.061-0.402-0.177-0.641-0.237c-0.061,0-0.116-0.058-0.183-0.058c-0.113-0.059-0.177-0.18,0-0.296
		c0.47-0.412,1.062-0.531,1.531,0c0.183,0.18,0.237,0.414,0.415,0.591c0.115,0.116,0.237,0.296,0.414,0.412
		c0.056,0.059,0.178,0.059,0.232,0c0.121-0.058,0.121-0.18,0.059-0.296c-0.064-0.116-0.108-0.177-0.175-0.237
		c-0.287-0.354-0.237-1.062,0.299-1.354c0.171-0.116,0.354-0.177,0.475-0.47c-0.121,0-0.18,0.056-0.238,0.056
		c-0.42,0.121-0.115-0.178,0.058-0.232c0.113-0.061-0.125-0.122-0.125-0.122s0.125-0.055,0.298-0.116
		c0.117-0.058,0.232-0.116,0.293-0.177c0.066-0.061,0.061-0.115,0.117-0.237c0,0,0,0,0-0.056c-0.117,0-0.23,0.056-0.354,0.056
		c-0.178,0-0.23,0-0.23-0.177c0-0.116-0.125-0.18-0.295-0.116c-0.058,0.061-0.183,0.116-0.232,0.177
		c-0.18,0.116-0.304,0.061-0.42-0.116c-0.056-0.122-0.113-0.122-0.237-0.061c-0.051,0.061-0.117,0.061-0.172,0.116
		c-0.116,0.061-0.183,0.121-0.299,0.121c-0.113,0.056-0.237,0.056-0.287-0.061c-0.061-0.116,0-0.238,0.055-0.293
		c0.122-0.121,0.238-0.18,0.354-0.238c0.177-0.115,0.349-0.176,0.53-0.293c0.122-0.061,0.178-0.237,0.122-0.354
		c-0.066-0.121-0.122-0.177-0.237-0.121c-0.117,0.061-0.184,0.121-0.297,0.177c-0.058,0-0.18,0.061-0.24,0
		c-0.055,0-0.055-0.116-0.055-0.116s0.055-0.059,0.121-0.059c0.232-0.058,0.531-0.058,0.764-0.115c0.061,0,0.061,0,0.121,0.058
		c0.177,0.232,0.409,0.293,0.646,0.409c0.238,0.061,0.238,0.061,0.289-0.177c0.297-0.056,0.535-0.177,0.83,0
		c0.18,0.122,0.297,0.237,0.412,0.354c0.057,0.062,0,0.122,0,0.18s-0.057,0.18-0.057,0.237c-0.059,0.18,0.057,0.297,0.229,0.297
		c0.061,0,0.125,0,0.182,0c0.178,0,0.238,0.058,0.178,0.176c0,0.238,0,0.238,0.238,0.238c0.061,0,0.115,0,0.176,0.061
		c0.061,0,0.061,0.056,0.117,0.056c0.18,0.177,0.354,0.121,0.414-0.177v-0.059c0-0.121,0.061-0.121,0.178-0.058
		c0.17,0.171,0.287,0.348,0.469,0.525c-0.182,0.177-0.182,0.354-0.115,0.53c0.057,0.237,0,0.415-0.117,0.592
		c-0.066,0.177-0.18,0.354-0.236,0.53c-0.066,0.293,0,0.409,0.287,0.47c0.303,0.061,0.303,0.116,0.354,0.415
		c0,0.354,0.182,0.646,0.535,0.763c0.057,0.061,0.178,0.061,0.238,0.121C16.998,16.796,16.826,17.382,16.529,17.973z"/>
</g>
</svg>
