<?xml version="1.0" encoding="utf-8"?>
<!-- Generator: Adobe Illustrator 15.0.0, SVG Export Plug-In . SVG Version: 6.00 Build 0)  -->
<!DOCTYPE svg PUBLIC "-//W3C//DTD SVG 1.1//EN" "http://www.w3.org/Graphics/SVG/1.1/DTD/svg11.dtd">
<svg version="1.1" id="Calque_1" xmlns="http://www.w3.org/2000/svg" xmlns:xlink="http://www.w3.org/1999/xlink" x="0px" y="0px"
	 width="35px" height="35px" viewBox="0 0 35 35" enable-background="new 0 0 35 35" xml:space="preserve">
<path fill="#999999" d="M34.834,29.061c0,1.797-0.598,3.217-1.793,4.258c-1.195,1.039-2.783,1.56-4.764,1.56H6.806
	c-1.981,0-3.57-0.521-4.765-1.56c-1.195-1.041-1.793-2.461-1.793-4.258c0-0.794,0.029-1.569,0.086-2.326s0.172-1.574,0.344-2.45
	c0.172-0.876,0.389-1.688,0.65-2.438c0.263-0.748,0.615-1.479,1.057-2.189c0.442-0.713,0.95-1.318,1.523-1.82
	c0.573-0.502,1.273-0.903,2.1-1.203c0.827-0.3,1.74-0.45,2.74-0.45c0.146,0,0.49,0.161,1.03,0.484
	c0.542,0.322,1.151,0.681,1.83,1.078c0.68,0.397,1.565,0.757,2.654,1.08c1.09,0.321,2.183,0.481,3.28,0.481
	c1.099,0,2.191-0.16,3.28-0.482s1.973-0.682,2.652-1.08c0.68-0.396,1.291-0.755,1.83-1.077c0.541-0.322,0.885-0.483,1.032-0.483
	c0.999,0,1.912,0.15,2.74,0.45c0.827,0.3,1.526,0.7,2.101,1.2c0.572,0.502,1.08,1.109,1.521,1.82
	c0.441,0.713,0.794,1.443,1.056,2.191c0.263,0.75,0.479,1.563,0.649,2.438c0.174,0.876,0.289,1.693,0.346,2.45
	c0.057,0.756,0.086,1.531,0.086,2.326H34.834z M26.975,8.993c0,2.382-0.922,4.415-2.765,6.1c-1.842,1.687-4.065,2.53-6.67,2.53
	c-2.604,0-4.826-0.843-6.668-2.53c-1.843-1.685-2.764-3.718-2.764-6.1c0-2.382,0.921-4.416,2.764-6.1
	c1.842-1.687,4.065-2.53,6.67-2.53c2.604,0,4.826,0.844,6.668,2.53C26.053,4.578,26.975,6.611,26.975,8.993z"/>
<rect fill="#007CB7" width="35" height="35"/>
<path d="M17.5,17.5c3.359,0,6.082-2.729,6.082-6.082c0-3.36-2.723-6.082-6.082-6.082c-3.36,0-6.082,2.722-6.082,6.082
	C11.418,14.771,14.14,17.5,17.5,17.5z M17.5,20.54c-4.052,0-12.163,2.03-12.163,6.082v3.041h24.326v-3.041
	C29.663,22.57,21.552,20.54,17.5,20.54z"/>
</svg>
