<?xml version="1.0" encoding="utf-8"?>
<!-- Generator: Adobe Illustrator 15.0.0, SVG Export Plug-In . SVG Version: 6.00 Build 0)  -->
<!DOCTYPE svg PUBLIC "-//W3C//DTD SVG 1.1//EN" "http://www.w3.org/Graphics/SVG/1.1/DTD/svg11.dtd">
<svg version="1.1" id="Calque_1" xmlns="http://www.w3.org/2000/svg" xmlns:xlink="http://www.w3.org/1999/xlink" x="0px" y="0px"
	 width="512px" height="512px" viewBox="0 0 512 512" enable-background="new 0 0 512 512" xml:space="preserve">
<path fill="#999999" d="M512.53,425.51c0,26.678-8.854,47.742-26.56,63.192c-17.707,15.451-41.235,23.177-70.585,23.177H97.392
	c-29.351,0-52.879-7.727-70.585-23.178C9.1,473.252,0.247,452.188,0.247,425.51c0-11.782,0.425-23.286,1.274-34.514
	c0.849-11.227,2.547-23.343,5.094-36.35c2.547-13.005,5.761-25.064,9.642-36.18c3.881-11.116,9.096-21.954,15.646-32.514
	c6.55-10.561,14.07-19.563,22.56-27.011s18.858-13.395,31.107-17.84c12.249-4.446,25.771-6.67,40.568-6.67
	c2.183,0,7.275,2.39,15.279,7.17c8.006,4.779,17.041,10.114,27.107,16.005c10.066,5.892,23.164,11.228,39.294,16.007
	c16.13,4.78,32.32,7.171,48.572,7.171c16.251,0,32.442-2.391,48.572-7.171c16.131-4.779,29.229-10.115,39.295-16.007
	c10.067-5.891,19.103-11.227,27.106-16.006c8.005-4.78,13.099-7.17,15.282-7.17c14.796,0,28.318,2.224,40.568,6.67
	c12.249,4.447,22.618,10.394,31.107,17.84c8.489,7.447,16.009,16.45,22.559,27.011c6.548,10.56,11.764,21.397,15.645,32.515
	c3.882,11.115,7.096,23.175,9.643,36.18c2.546,13.007,4.244,25.123,5.094,36.35c0.849,11.228,1.273,22.731,1.273,34.515
	L512.53,425.51z M396.1,127.723c0,35.347-13.645,65.525-40.933,90.537c-27.288,25.01-60.215,37.514-98.781,37.514
	c-38.567,0-71.494-12.505-98.78-37.515c-27.289-25.012-40.934-55.19-40.934-90.538s13.645-65.527,40.933-90.538
	C184.893,12.174,217.82-0.33,256.387-0.33c38.566,0,71.494,12.505,98.782,37.514c27.288,25.011,40.933,55.19,40.933,90.538
	L396.1,127.723z"/>
<rect x="0" y="0" fill="#007CB7" width="512" height="512"/>
<path d="M256,256c49.552,0,89.693-40.252,89.693-89.694c0-49.552-40.142-89.693-89.693-89.693s-89.694,40.142-89.694,89.693
	C166.305,215.748,206.448,256,256,256z M256,300.842c-59.763,0-179.388,29.941-179.388,89.693v44.853h358.775v-44.853
	C435.387,330.783,315.758,300.842,256,300.842z"/>
</svg>
