<?xml version="1.0" encoding="UTF-8"?>
<svg id="Calque_1" data-name="Calque 1" xmlns="http://www.w3.org/2000/svg" version="1.1" viewBox="0 0 510.2 510.2">
  <defs>
    <style>
      .cls-1 {
        fill: #000;
        stroke-width: 0px;
      }
    </style>
  </defs>
  <path class="cls-1" d="M273.8,411.4H116.5c-6.5,0-11.9-5.3-11.9-11.9v-157.2s.1-5.7-6.4-5.7h-15.1c-7,0-6.6,5.7-6.6,5.7v159c0,21.1,17.1,38.2,38.2,38.2h159s5.7,0,5.7-7.2v-13.6c0-7.2-5.7-7.3-5.7-7.3Z"/>
  <path class="cls-1" d="M156.5,110.5c-6.5,0-11.9,5.3-11.9,11.9v237.1c0,6.5,5.3,11.9,11.9,11.9h166v-59.3c0-13.1,10.6-23.7,23.7-23.7h59.3V122.4c0-6.5-5.3-11.9-11.9-11.9h-237.1ZM320.4,399.5h-165.6c-21.1,0-38.2-17.1-38.2-38.2V120.6c0-21.1,17.1-38.2,38.2-38.2h240.7c21.1,0,38.2,17.1,38.2,38.2v169.5c0,12-4.7,23.6-13.2,32.1l-64.1,64.1c-8.5,8.5-20,13.2-32.1,13.2h-3.9Z"/>
  <rect class="cls-1" x="179.4" y="156.5" width="191.5" height="21.9" rx="4" ry="4"/>
  <rect class="cls-1" x="179.4" y="218.1" width="125" height="21.9" rx="4" ry="4"/>
</svg>