<?xml version="1.0" encoding="UTF-8"?>
<svg id="Calque_1" data-name="Calque 1" xmlns="http://www.w3.org/2000/svg" version="1.1" viewBox="0 0 24 24">
  <defs>
    <style>
      .cls-1, .cls-2, .cls-3, .cls-4, .cls-5, .cls-6 {
        stroke-width: 0px;
      }

      .cls-1, .cls-2, .cls-4 {
        fill: #000;
      }

      .cls-2, .cls-3, .cls-5, .cls-6 {
        display: none;
      }

      .cls-3, .cls-5, .cls-6 {
        fill: #00496d;
      }

      .cls-4 {
        opacity: .8;
      }

      .cls-5 {
        opacity: .7;
      }

      .cls-6 {
        opacity: .6;
      }
    </style>
  </defs>
  <g id="Calque_2" data-name="Calque 2">
    <polygon class="cls-4" points="19.7 9 19.8 8.4 18.8 8.1 19.7 9"/>
    <path class="cls-4" d="M18,13l-.5,5.9h-.9s-.4-4.1-.4-4.1l-.5.5c.2,1.7.3,3.8.4,3.9,0,.2.1.3.2.3h1.5c.1,0,.2-.1.2-.3s.5-6.2.5-6.2l.2-.8-.8.8Z"/>
    <path class="cls-4" d="M17.1,4.4c-.9,0-1.6.7-1.6,1.6s.7,1.6,1.6,1.6,1.6-.7,1.6-1.6-.7-1.6-1.6-1.6ZM17.1,7.1c-.6,0-1.1-.5-1.1-1.1s.5-1.1,1.1-1.1,1.1.5,1.1,1.1-.5,1.1-1.1,1.1Z"/>
    <path class="cls-4" d="M8.4,13.4c0-.3,0-.4,0-.4l.3-1.3-.3-1.2-.6,2.4h0s.5.5.5.5Z"/>
    <polygon class="cls-4" points="7.8 7.9 5.9 7.9 4.2 8.4 5.3 12.8 5.8 12.3 4.9 8.8 5.9 8.5 7.9 8.5 8 8.5 7.8 7.9"/>
    <path class="cls-4" d="M7,18.9h-.5s0-.6,0-.6l-.6-.6c0,.8.1,1.5.1,1.5,0,.2.1.3.2.3h1.4l-.6-.6Z"/>
    <path class="cls-4" d="M6.9,4.4c-.9,0-1.6.7-1.6,1.6s.7,1.6,1.6,1.6,1.6-.7,1.6-1.6-.7-1.6-1.6-1.6ZM6.9,7.1c-.6,0-1.1-.5-1.1-1.1s.5-1.1,1.1-1.1,1.1.5,1.1,1.1-.5,1.1-1.1,1.1Z"/>
    <path class="cls-4" d="M10.1,14l.6-.6v-.2s-1.3-5.1-1.3-5.1l1.3-.4h2.5l1.3.4-.5,2.1,1-1c.2-.8.4-1.5.4-1.5,0,0,0-.1-.2-.2-.2,0-1.8-.5-1.8-.5h-2.5s-1.7.5-1.8.5-.2.1-.2.2,1.4,5.6,1.4,5.6c0,0,0,.3,0,.7Z"/>
    <path class="cls-4" d="M12.7,18.3l-.2,2.3h-1.1s0-.9,0-.9l-.7.7c0,.4,0,.6,0,.6,0,.2.1.4.3.4h1.8c.1,0,.3-.1.3-.4,0-.1.1-1.7.3-3.4l-.8.8Z"/>
    <path class="cls-4" d="M12,2.7c-1.1,0-2,.9-2,2s.9,2,2,2,2-.9,2-2-.9-2-2-2ZM12,6.1c-.8,0-1.4-.6-1.4-1.4s.6-1.4,1.4-1.4,1.4.6,1.4,1.4-.6,1.4-1.4,1.4Z"/>
  </g>
  <polygon class="cls-1" points="17.4 8.9 9.6 16.7 6.5 13.7 5.2 15 9.6 19.3 18.7 10.2 17.4 8.9"/>
  <polygon class="cls-2" points="10.6 1.1 10.6 16.5 4.6 16.5 4.6 19.1 13.1 19.1 13.1 1.1 10.6 1.1"/>
  <polygon class="cls-2" points="18.1 8.6 9.4 17.3 5.9 13.7 4.8 14.8 9.4 19.4 19.2 9.6 18.1 8.6"/>
  <rect class="cls-3" x="9.1" y="22.2" width="7.8" height="1.2"/>
  <rect class="cls-6" x="-.3" y="5.6" width="13.5" height="1.5" transform="translate(15.5 6.3) rotate(135)"/>
  <path class="cls-5" d="M19.8,10.5l-2.4-2.4-.2.2h0s-7.6,7.6-7.6,7.6l-2.8-2.8-.4.4-.2-.2-1.7,1.7.6.6-.4.4,4.6,4.6.3-.3.3.3,9.7-9.7h0s.2-.2.2-.2ZM6.6,14l3,3,.3-.3h0s7.5-7.5,7.5-7.5l1.3,1.3-9,9-4.3-4.3,1.3-1.3Z"/>
</svg>