<?xml version="1.0" encoding="utf-8"?>
<!-- Generator: Adobe Illustrator 15.0.0, SVG Export Plug-In . SVG Version: 6.00 Build 0)  -->
<!DOCTYPE svg PUBLIC "-//W3C//DTD SVG 1.1 Tiny//EN" "http://www.w3.org/Graphics/SVG/1.1/DTD/svg11-tiny.dtd">
<svg version="1.1" baseProfile="tiny" id="Calque_2_1_"
	 xmlns="http://www.w3.org/2000/svg" xmlns:xlink="http://www.w3.org/1999/xlink" x="0px" y="0px" width="16px" height="16px"
	 viewBox="0 0 16 16" xml:space="preserve">
<g id="Calque_1_5_">
	<path fill="#9D9D9C" d="M8,1c3.865,0,7,3.134,7,7c0,3.865-3.135,7-7,7c-1.251,0-2.425-0.328-3.441-0.903
		c-0.317-0.18-0.903-0.608-0.903-0.608s0,0,0.626-1.352C4.792,12.544,5.844,13.563,8,13.563c2.953,0,5.563-2.438,5.563-5.563
		S11,2.438,8,2.438S2.438,4.875,2.438,8C1.828,8,2.438,8,1,8C1,4.134,4.134,1,8,1z"/>
	<polygon fill="#9D9D9C" points="2.273,15.461 2.273,10.992 6.742,10.992 	"/>
</g>
</svg>
