<?xml version="1.0" encoding="utf-8"?>
<!-- Generator: Adobe Illustrator 15.0.0, SVG Export Plug-In . SVG Version: 6.00 Build 0)  -->
<!DOCTYPE svg PUBLIC "-//W3C//DTD SVG 1.1 Tiny//EN" "http://www.w3.org/Graphics/SVG/1.1/DTD/svg11-tiny.dtd">
<svg version="1.1" baseProfile="tiny" id="Calque_2_1_"
	 xmlns="http://www.w3.org/2000/svg" xmlns:xlink="http://www.w3.org/1999/xlink" x="0px" y="0px" width="16px" height="16px"
	 viewBox="0 0 16 16" xml:space="preserve">
<g id="Calque_1_5_">
	<path fill="#9D9D9C" d="M0.5,8.469c3.865,0,7,3.134,7,7c-1.438,0,0,0-1.438,0c0-3.125-2.563-5.563-5.563-5.563
		C0.5,8.469,0.5,9.781,0.5,8.469z"/>
	<polygon display="none" fill="#9D9D9C" points="0.835,16.992 0.835,12.523 5.305,12.523 	"/>
	<polygon display="none" fill="#9D9D9C" points="0.835,16.992 0.835,12.523 5.305,12.523 	"/>
</g>
<path fill="#9D9D9C" d="M15.5,15.5c-1.406,0,0,0-1.406,0c0-7.797-6.438-13.578-13.594-13.578c0-1.25,0,0,0-1.422
	C8.783,0.5,15.5,7.215,15.5,15.5z"/>
<path fill="#9D9D9C" d="M11.561,15.494c0,0-0.026,0.004-1.399,0c0-5.273-4.739-9.658-9.661-9.658c0.003-1.317,0-0.249,0.003-1.4
	C6.609,4.436,11.561,9.386,11.561,15.494z"/>
<circle display="none" fill="#9D9D9C" cx="3.827" cy="12.174" r="3.327"/>
</svg>
