<?xml version="1.0" encoding="UTF-8"?>
<svg id="Calque_1" data-name="Calque 1" xmlns="http://www.w3.org/2000/svg" version="1.1" viewBox="0 0 24 24">
  <defs>
    <style>
      .cls-1 {
        fill: #000;
        stroke-width: 0px;
      }
    </style>
  </defs>
  <circle class="cls-1" cx="11.6" cy="9.4" r="1"/>
  <path class="cls-1" d="M20,8.5v8.8c0,.1,0,.2-.2.2H6.2v.8h14.3c.2,0,.4-.2.4-.4v-9.4h-.8Z"/>
  <path class="cls-1" d="M18.8,6.6H4.5c-.2,0-.4.2-.4.4v9.3c0,.2.2.4.4.4h14.3c.2,0,.4-.2.4-.4V7c0-.2-.2-.4-.4-.4ZM18.4,15.6c0,.1,0,.2-.2.2H5.2c-.1,0-.2,0-.2-.2v-8c0-.1,0-.2.2-.2h13c.1,0,.2,0,.2.2v8Z"/>
  <polygon class="cls-1" points="11.9 15.9 13.1 15.9 12 14.8 14.2 12.6 17.5 15.9 18.6 15.9 14.2 11.4 11.4 14.2 6.6 9.4 5 11.1 5 12.3 6.6 10.6 11.9 15.9"/>
</svg>