<?xml version="1.0" encoding="UTF-8"?>
<svg id="Calque_1" data-name="Calque 1" xmlns="http://www.w3.org/2000/svg" version="1.1" viewBox="0 0 24 24">
  <defs>
    <style>
      .cls-1 {
        fill: #315da5;
        stroke-width: 0px;
      }
    </style>
  </defs>
  <path class="cls-1" d="M12,2.5C6.7,2.5,2.5,6.7,2.5,12s4.2,9.5,9.5,9.5,9.5-4.2,9.5-9.5S17.3,2.5,12,2.5ZM20.3,11.3l-.4-.4-1.7-1.7-1.5,1.5-1.4-1.4-1.7-1.7-1.2,1.2V3.7c4.1.2,7.5,3.5,7.9,7.6ZM20.3,12.5c0,.6,0,1.2-.2,1.7l-2.7-2.7,1-1,2,2.1h0ZM3.7,12C3.7,7.5,7.3,3.9,11.8,3.7v8.1l-7,4.1c-.7-1.2-1.1-2.5-1.1-3.9h0ZM12,20.3c-3,0-5.5-1.6-7-3.9l7-4.1,7,4.1c-1.5,2.3-4.1,3.9-7,3.9ZM12.2,11.8v-1.7l1.2-1.2,6.1,6.1c0,.3-.2.6-.4.9,0,0-6.9-4.1-6.9-4.1Z"/>
  <circle class="cls-1" cx="15.6" cy="7" r="1"/>
  <path class="cls-1" d="M5.7,7.4v6.3l5.5-3.1-5.5-3.1h0ZM6.5,8.5l3.4,1.9-3.4,1.9s0-3.8,0-3.8Z"/>
  <path class="cls-1" d="M12.9,13.5c-.6-.2-.9-.4-.9-.4v3.6c-.2-.2-.6-.3-1-.3-.9,0-1.7.7-1.7,1.7s.7,1.7,1.7,1.7,1.6-.7,1.7-1.6h0v-4.1h.4c.2,0,.5.2.5.2h.2s0-.6-.8-.9h0ZM11.1,18.9c-.5,0-1-.4-1-1s.4-1,1-1,1,.4,1,1-.5,1-1,1Z"/>
  <path class="cls-1" d="M31.3,19.4"/>
</svg>