<?xml version="1.0" encoding="utf-8"?>
<!-- Generator: Adobe Illustrator 26.3.1, SVG Export Plug-In . SVG Version: 6.00 Build 0)  -->
<svg version="1.1"
	 id="svg2" xmlns:cc="http://creativecommons.org/ns#" xmlns:rdf="http://www.w3.org/1999/02/22-rdf-syntax-ns#" xmlns:dc="http://purl.org/dc/elements/1.1/" xmlns:inkscape="http://www.inkscape.org/namespaces/inkscape" xmlns:svg="http://www.w3.org/2000/svg" xmlns:sodipodi="http://sodipodi.sourceforge.net/DTD/sodipodi-0.dtd" inkscape:version="0.48.2 r9819"
	 xmlns="http://www.w3.org/2000/svg" xmlns:xlink="http://www.w3.org/1999/xlink" x="0px" y="0px" viewBox="0 0 24 24"
	 style="enable-background:new 0 0 24 24;" xml:space="preserve">
<style type="text/css">
	.st0{fill:none;stroke:#6A3011;stroke-width:0.75;stroke-linecap:round;}
	.st1{fill:#BE692A;}
	.st2{fill:#573212;}
	.st3{fill:#94541E;}
	.st4{opacity:0.11;clip-path:url(#SVGID_00000181080993518991023570000005224775287012600992_);}
	.st5{fill:#2A1B10;}
	.st6{fill:none;stroke:#6A3011;stroke-width:0.7263;stroke-linecap:round;}
</style>
<path id="path393_2_" inkscape:connector-curvature="0" class="st0" d="M22.9,20.4c0,0-0.7-0.8-1-1.1c-0.2-0.3-0.1-1.8-0.3-4.1
	c-0.2-2.5-0.9-2.9-0.9-2.9"/>
<path id="path395_2_" inkscape:connector-curvature="0" class="st1" d="M12.1,16.9c0,0,1.1,0.4,2.9,0.6c3.8,0.4,7.2-4.1,5.2-8.1
	c-0.9,0.4-1.1,1.3-2.4,1.2c-0.6,0-1-0.6-1.2-1.6c-0.9,0.3-1.8,0.3-2.4,0.1c-0.9-0.3-0.8-4-1-4.2c0.2,1.9-1.1,2.1-1.7,2
	C10.7,6.8,9.8,4.4,9.3,4C6.7,3.7,5.1,4.3,4.6,4.7c-1.5,1-1.8,2.8-1.8,2.8l1.8,2.9l0,2.3l3.9,2.7L12.1,16.9z"/>
<path class="st2" d="M11.9,16.3c0,0,1.1,0.3,1.9,0.4c0.8,0.1,1.6,0.3,2.6,0.1c0.9-0.2,1.7-0.7,2.6-1.5s1.3-2.1,1.4-3.2
	s-0.3-2-0.4-2.3c-0.1-0.3,0.3-1.8,0.3-1.8s0.9,1.8,1.1,2.8c0.2,1.1,0.2,2.9-1.1,4.6s-2.4,2.1-3.2,2.3c-0.7,0.2-1.5,0.2-2.1,0.2
	c-0.6-0.1-2.5-0.4-2.5-0.4L11.9,16.3z"/>
<ellipse id="ellipse461_2_" sodipodi:cy="43.019001" sodipodi:cx="134.519" sodipodi:rx="7.0139999" sodipodi:ry="5.177" transform="matrix(0.4052 -0.9142 0.9142 0.4052 -5.7975 14.8457)" class="st3" cx="8.5" cy="11.9" rx="0.9" ry="1.2">
</ellipse>
<ellipse id="ellipse463_2_" sodipodi:cy="43.019001" sodipodi:cx="184.918" sodipodi:rx="7.2020001" sodipodi:ry="3.5439999" transform="matrix(0.2477 -0.9688 0.9688 0.2477 1.2546 25.3724)" class="st3" cx="17" cy="11.9" rx="0.6" ry="1.2">
</ellipse>
<ellipse id="ellipse465_2_" sodipodi:cy="20.469" sodipodi:cx="126.753" sodipodi:rx="9.1429996" sodipodi:ry="4.6269999" transform="matrix(0.3319 -0.9433 0.9433 0.3319 -2.8339 12.2177)" class="st3" cx="7.2" cy="8.1" rx="0.8" ry="1.5">
</ellipse>
<ellipse id="ellipse467_2_" sodipodi:cy="21.861" sodipodi:cx="149.448" sodipodi:rx="3.8989999" sodipodi:ry="2.8770001" transform="matrix(0.4041 -0.9147 0.9147 0.4041 -1.0657 15.0475)" class="st3" cx="11" cy="8.3" rx="0.5" ry="0.7">
</ellipse>
<ellipse id="ellipse469_2_" sodipodi:cy="47.594002" sodipodi:cx="159.392" sodipodi:rx="4.5549998" sodipodi:ry="3.362" transform="matrix(0.4054 -0.9141 0.9141 0.4054 -4.0165 19.112)" class="st3" cx="12.7" cy="12.6" rx="0.6" ry="0.8">
</ellipse>
<g id="g481_2_" transform="matrix(0.13116936,0,0,0.1306793,-8.4606486,6.1380018)">
	<g>
		<g>
			<defs>
				<path id="SVGID_1_" d="M156.8,82.7c0,0,1.2,0.4,3.3,0.9c3.7,0.9,10.4,2.4,18.9,3.4c28.8,3.4,54.6-31,39.6-61.6
					C204.3-4.2,186.3-1,165.6-9.5c-41.2-16.9-60.2-5.6-65.8-1.7C88.4-3.5,86.2,10.1,86.2,10.1s14.5,16.4,14,26.8
					c-0.5,10.4-0.5,12.9-0.5,12.9s16.1,13.4,27.8,19.8"/>
			</defs>
			<clipPath id="SVGID_00000096052643229899756380000000548032047958838200_">
				<use xlink:href="#SVGID_1_"  style="overflow:visible;"/>
			</clipPath>
			<g id="g489_2_" style="opacity:0.11;clip-path:url(#SVGID_00000096052643229899756380000000548032047958838200_);">
				<path id="path491_2_" inkscape:connector-curvature="0" class="st5" d="M219.5,27.1c0,0,1.3,20.2-9.3,32.8
					c-8,9.6-19,17.9-46.1,11.5c-27.1-6.4-45-17.3-54.6-26.6c-9.6-9.2-12.3-17.8-12.3-17.8l-2.4,19.2L138,95.5l43.8,13.3l41.4-35.2
					l3.4-43.5L219.5,27.1z"/>
			</g>
		</g>
	</g>
</g>
<path class="st2" d="M3.3,8c0,0-0.1-0.6,0.4-1.4s1-1.4,1.9-1.8c0.9-0.4,1.8-0.5,2.7-0.5s1.3,0.2,1.3,0.2L9.3,3.3L7.5,3.6l-2,0
	c0,0-0.8,0.3-1.3,0.7C3.7,4.7,3.3,5.1,3,5.7S2.4,7,2.3,7.3C2.3,7.7,3.3,8,3.3,8z"/>
<path id="path477_2_" inkscape:connector-curvature="0" class="st0" d="M12.9,18.6c0,0-0.2-1.2-0.8-1.7c-0.6-0.5-2.2-0.8-4.1-1.9
	c-2.3-1.2-3.4-2.8-3.4-2.8"/>
<path id="path479_2_" inkscape:connector-curvature="0" class="st0" d="M3.7,13.4C5.9,12,3.9,8.7,3.3,7.9C2.6,7.2,2,7.5,1.8,7.7
	c-0.2,0.2-0.3,0.5-0.3,2c0,1.5-0.2,1.6-0.5,2.7c-0.2,0.9,0.5,1.8,1.1,2.8c0.7,1,2.9,3.8,2.9,3.8s0,0,2.3,1.6c0.7,0.5,3,1.9,3,1.9"/>
<path id="path415_2_" inkscape:connector-curvature="0" class="st0" d="M13.1,4.6c0,0,0.5-1.6,0.9-1.9c0.4-0.2,1.3-0.5,2.1,0
	c0.8,0.5,0.8,1.4,0.7,2.5c0,0.8,0,3,0,3s0,1.2-1.4,1.2s-1.5-0.8-1.5-1c-0.1-0.2-0.1-4.2-0.1-4.2"/>
<path id="path431_2_" inkscape:connector-curvature="0" class="st0" d="M16.7,6.8c0,0,1.1-1.6,1.9-1.5C19.4,5.3,20.1,6,20,7.2
	c0,1.2-0.6,3-1.3,3.2c-0.7,0.2-1.3,0-1.5-0.4c-0.3-0.6,0.2-3.1,0.2-3.1l-0.3-0.3"/>
<path id="path445_2_" inkscape:connector-curvature="0" class="st6" d="M8.8,2.1c0,0,1-1.1,1.6-1.2c0.6-0.1,1-0.2,1.5,0.3
	c0.5,0.4,1.4,3.9,1.4,4.2c0,0.2,0.1,1.5-1.1,1.6C10.9,7,10.6,6.6,9.9,4.7C9.6,3.9,9.3,3.1,9.3,3.1"/>
<path id="path459_2_" inkscape:connector-curvature="0" class="st0" d="M4.6,4.7c0,0-0.6-1-0.4-1.7c0.2-0.6,1.2-2,1.5-2.1
	C6,0.8,6.4,0.5,7,0.9c0.6,0.3,1.1,0.9,1.4,1C8.7,2,8.9,2.2,8.9,2.6c0,0.4-0.2,0.9-1.5,1.3C5.9,4.2,5.1,2.9,5.1,2.9"/>
</svg>
