<?xml version="1.0" encoding="utf-8"?>
<!-- Generator: Adobe Illustrator 26.3.1, SVG Export Plug-In . SVG Version: 6.00 Build 0)  -->
<svg version="1.1" id="Calque_1" xmlns="http://www.w3.org/2000/svg" xmlns:xlink="http://www.w3.org/1999/xlink" x="0px" y="0px"
	 viewBox="0 0 24 24" style="enable-background:new 0 0 24 24;" xml:space="preserve">
<g>
	<path d="M23.3,6.6c0-1.5-1.2-2.7-2.7-2.7h-1.2V3c0-0.6-0.5-1-1-1c-0.6,0-1,0.5-1,1v1H6.7V3c0-0.6-0.5-1-1-1c-0.6,0-1,0.5-1,1v1H3.4
		c-1.5,0-2.7,1.2-2.7,2.7v15.5c0,0.3,0.3,0.6,0.6,0.6h21.4c0.3,0,0.6-0.3,0.6-0.6L23.3,6.6L23.3,6.6z M22.1,21.5H1.9V8.8h20.1V21.5z
		"/>
	<path d="M4.2,14h3.1c0.2,0,0.3-0.1,0.3-0.3v-3.1c0-0.2-0.1-0.3-0.3-0.3H4.2c-0.2,0-0.3,0.1-0.3,0.3v3.1C3.9,13.9,4,14,4.2,14
		L4.2,14z"/>
	<path d="M10.5,14h3.1c0.2,0,0.3-0.1,0.3-0.3v-3.1c0-0.2-0.1-0.3-0.3-0.3h-3.1c-0.2,0-0.3,0.1-0.3,0.3v3.1
		C10.2,13.9,10.3,14,10.5,14z"/>
	<path d="M10.5,20h3.1c0.2,0,0.3-0.1,0.3-0.3v-3.1c0-0.2-0.1-0.3-0.3-0.3h-3.1c-0.2,0-0.3,0.1-0.3,0.3v3.1
		C10.2,19.9,10.3,20,10.5,20z"/>
	<path d="M19.8,16.3h-3.1c-0.2,0-0.3,0.1-0.3,0.3v3.1c0,0.2,0.1,0.3,0.3,0.3h3.1c0.2,0,0.3-0.1,0.3-0.3v-3.1
		C20.1,16.5,20,16.3,19.8,16.3z"/>
	<path d="M5.1,19.9C5.2,20,5.3,20,5.4,20c0,0,0,0,0,0c0.1,0,0.3-0.1,0.4-0.2l2.1-2.8c0.2-0.2,0.1-0.5-0.1-0.7
		c-0.2-0.2-0.5-0.1-0.7,0.1l-1.8,2.3l-1.2-1.2c-0.2-0.2-0.5-0.2-0.7,0c-0.2,0.2-0.2,0.5,0,0.7L5.1,19.9z"/>
	<path d="M17.7,13.9c0.1,0.1,0.2,0.1,0.3,0.1c0,0,0,0,0,0c0.1,0,0.3-0.1,0.4-0.2l2.1-2.8c0.2-0.2,0.1-0.5-0.1-0.7
		c-0.2-0.2-0.5-0.1-0.7,0.1L18,12.9l-1.2-1.2c-0.2-0.2-0.5-0.2-0.7,0c-0.2,0.2-0.2,0.5,0,0.7L17.7,13.9z"/>
</g>
</svg>
