<?xml version="1.0" encoding="UTF-8"?>
<svg id="Calque_1" data-name="Calque 1" xmlns="http://www.w3.org/2000/svg" version="1.1" xmlns:xlink="http://www.w3.org/1999/xlink" viewBox="0 0 24 24">
  <defs>
    <style>
      .cls-1, .cls-2, .cls-3 {
        stroke-width: 0px;
      }

      .cls-1, .cls-3 {
        fill: #000;
      }

      .cls-2 {
        fill: none;
      }

      .cls-3 {
        fill-rule: evenodd;
      }

      .cls-4 {
        clip-path: url(#clippath);
      }
    </style>
    <clipPath id="clippath">
      <rect class="cls-2" width="24" height="24"/>
    </clipPath>
  </defs>
  <g id="Ebene_1">
    <g class="cls-4">
      <g>
        <g id="_403159096" data-name=" 403159096">
          <path id="_403159912" data-name=" 403159912" class="cls-3" d="M19,6.7l-3.4-3.4c-.2-.2-.4-.2-.6-.2H5.6c-.5,0-.9.4-.9.9h0v16c0,.5.4.9.9.9h12.8c.5,0,.9-.4.9-.9h0V7.4c0-.2-.1-.5-.3-.6ZM14.7,4.7l3,3h-3v-3ZM6,19.6V4.3h7.4v3.7c0,.5.4.9.9.9h3.7v10.7H6s0,0,0,0Z"/>
        </g>
        <g id="_403159360" data-name=" 403159360">
          <path id="_403159648" data-name=" 403159648" class="cls-1" d="M9.2,10.5h5.1c-.2.1-.5.3-.7.5h-4c-.1-.2-.3-.3-.4-.5ZM15.8,11.4v5.3l-.5-.4v-4.5c.1-.1.3-.2.5-.4ZM14,18.1h-4.3l.4-.5h3.4c.2.2.4.3.6.5ZM8.1,16.6v-4.5c.1.2.3.5.5.7v3.2c-.2.2-.3.4-.5.6Z"/>
          <g>
            <path id="_403159480" data-name=" 403159480" class="cls-1" d="M7.7,10.1c0-.3.6-.2.8,0,1.3,1.3,2.3,2.9,3.8,4l4.2,3.4c.5.4-.3,1.8-1.1,1.3-2.1-1.3-7.7-6.1-7.5-8.7h0Z"/>
            <path id="_403159768" data-name=" 403159768" class="cls-1" d="M16.3,10.1c.3,0,.4.4.2.6-1.6,1-2.9,2.3-4,3.8l-3.4,4.2c-.4.5-1.8-.3-1.3-1.1,1.3-2.1,5.9-7.5,8.5-7.4Z"/>
          </g>
        </g>
      </g>
    </g>
    <polygon class="cls-2" points="0 24 24 24 24 0 0 0 0 24"/>
  </g>
</svg>