<?xml version="1.0" encoding="UTF-8"?>
<svg id="Calque_1" data-name="Calque 1" xmlns="http://www.w3.org/2000/svg" version="1.1" viewBox="0 0 24 24">
  <defs>
    <style>
      .cls-1 {
        fill: #00609c;
        stroke-width: 0px;
      }
    </style>
  </defs>
  <rect class="cls-1" x="8" y="12" width="8.1" height="2"/>
  <rect class="cls-1" x="8" y="16.1" width="8.1" height="2"/>
  <polygon class="cls-1" points="18.3 8.9 13 8.9 13 3.6 18.3 8.9"/>
  <path id="_Tracé_" data-name="&amp;lt;Tracé&amp;gt;" class="cls-1" d="M13.9,2.6h-7.8c-.8,0-1.4.6-1.4,1.4v16c0,.8.6,1.4,1.4,1.4h11.9c.8,0,1.4-.6,1.4-1.4v-11.9l-5.5-5.5ZM18.6,19.8c0,.4-.4.8-.8.8H6.2c-.4,0-.8-.4-.8-.8V4.2c0-.4.4-.8.8-.8h7.4l5.1,5.1v11.4Z"/>
</svg>