<?xml version="1.0" encoding="utf-8"?>
<!-- Generator: Adobe Illustrator 15.0.0, SVG Export Plug-In . SVG Version: 6.00 Build 0)  -->
<!DOCTYPE svg PUBLIC "-//W3C//DTD SVG 1.1//EN" "http://www.w3.org/Graphics/SVG/1.1/DTD/svg11.dtd">
<svg version="1.1" id="Calque_2" xmlns="http://www.w3.org/2000/svg" xmlns:xlink="http://www.w3.org/1999/xlink" x="0px" y="0px"
	 width="24px" height="24px" viewBox="0 0 24 24" enable-background="new 0 0 24 24" xml:space="preserve">
<g>
	<path fill="#007CB7" d="M4.598,21.509L3.13,20.116c-0.948-0.876-1.017-2.334-0.141-3.285l4.305-4.668l-1.321-1.167l-4.298,4.675
		c-1.54,1.602-1.396,4.158,0.212,5.694l1.54,1.457c1.608,1.537,4.161,1.387,5.694-0.222l4.305-4.675l-1.321-1.163L7.807,21.43
		C7,22.306,5.535,22.306,4.598,21.509z"/>
	<path fill="#007CB7" d="M14.813,1.434l-4.238,4.601l1.314,1.163l4.238-4.523c0.876-0.949,2.334-1.02,3.285-0.144l1.45,1.381
		c0.958,0.876,1.026,2.34,0.151,3.286l-4.236,4.531l1.313,1.164l4.236-4.603c1.54-1.6,1.39-4.161-0.219-5.692l-1.533-1.458
		C18.823-0.318,16.271-0.248,14.813,1.434z"/>
	<polygon fill="#007CB7" points="7.061,15.952 15.524,6.77 16.859,8.008 8.399,17.188 	"/>
</g>
</svg>
