<?xml version="1.0" encoding="utf-8"?>
<!-- Generator: Adobe Illustrator 15.0.0, SVG Export Plug-In . SVG Version: 6.00 Build 0)  -->
<!DOCTYPE svg PUBLIC "-//W3C//DTD SVG 1.1//EN" "http://www.w3.org/Graphics/SVG/1.1/DTD/svg11.dtd">
<svg version="1.1" id="Calque_1" xmlns="http://www.w3.org/2000/svg" xmlns:xlink="http://www.w3.org/1999/xlink" x="0px" y="0px"
	 width="24px" height="24px" viewBox="0 0 24 24" enable-background="new 0 0 24 24" xml:space="preserve">
<path display="none" fill="#007CB7" d="M21.514,4.777H12L9.596,2.368H2.43c-1.319,0-2.347,1.083-2.347,2.409v14.445
	c0,1.326,1.083,2.409,2.409,2.409h19.021c1.32,0,2.403-1.083,2.403-2.409V7.187C23.86,5.861,22.834,4.777,21.514,4.777z
	 M21.514,19.223H2.43V7.187h19.083V19.223z"/>
<path fill="#007CB7" d="M23.954,8.914l-0.99-6.233c-0.149-0.913-0.833-1.597-1.746-1.75l-6.154-0.913
	c-0.684-0.075-1.295,0.075-1.822,0.617L0.625,13.178c-0.833,0.841-0.833,2.124,0,2.973l7.217,7.224c0.84,0.835,2.13,0.835,2.967,0
	l12.618-12.627C23.875,10.219,24.104,9.602,23.954,8.914z M10.2,21.776c-0.306,0.307-0.833,0.307-1.14,0l-6.839-6.846
	c-0.307-0.31-0.307-0.842,0-1.146c0.306-0.307,0.833-0.307,1.14,0l6.839,6.845C10.577,20.936,10.577,21.393,10.2,21.776z
	 M19.395,6.789c-0.612,0.606-1.596,0.606-2.209,0c-0.604-0.613-0.604-1.597,0-2.207c0.613-0.603,1.597-0.603,2.209,0
	C20.001,5.199,20.001,6.176,19.395,6.789z"/>
</svg>
