<?xml version="1.0" encoding="utf-8"?>
<!-- Generator: Adobe Illustrator 26.3.1, SVG Export Plug-In . SVG Version: 6.00 Build 0)  -->
<svg version="1.1" id="Layer_1" xmlns="http://www.w3.org/2000/svg" xmlns:xlink="http://www.w3.org/1999/xlink" x="0px" y="0px"
	 viewBox="0 0 24 24" style="enable-background:new 0 0 24 24;" xml:space="preserve">
<path d="M23.8,7.4c0-3.1-3.2-5.6-7.2-5.6c-2.5,0-4.6,1-5.9,2.4C7.3,2.9,2.8,3.9,0.9,7.4c-1.5,2.8,0.1,6,2.6,7.3v2.8
	c0,0.4,0.3,0.7,0.7,0.7c0.2,0,0.3-0.1,0.4-0.2l2.2-2.3c0.4,0,0.7,0.1,1.1,0c1.1,3.5,4.9,5,8.1,4.6l2.2,2.3c0.3,0.3,0.7,0.3,0.9,0
	c0.1-0.1,0.2-0.3,0.2-0.4v-2.9c2.5-1.3,4.1-4.5,2.6-7.3c-0.1-0.2-0.2-0.3-0.3-0.5C22.9,10.5,23.8,9.1,23.8,7.4z M7.6,14.2
	c-0.3,0-0.7,0-1-0.1c-0.2,0-0.4,0.1-0.5,0.1l-1.3,1.3v-1.6c0.1-0.2-0.1-0.4-0.3-0.6C2.2,12.4,1.1,10.2,2.2,8c1.1-2,3.4-2.8,5.4-2.8
	c1.4,0,2.8,0.4,4,1.2c0.7,0.5,1.3,1.2,1.6,2.1C10.5,9,7.6,11.1,7.6,14.2z M18.2,18.3c-0.2,0.1-0.4,0.3-0.4,0.6v1.6l-1.3-1.3
	C16.4,19,16.2,18.9,16,19C15.6,19,15.3,19,15,19c-0.8,0-1.5-0.1-2.3-0.4c-2.3-0.8-4.5-3.3-3.1-5.9c1.9-3.3,6.9-3.6,9.6-1.4
	c0.9,0.7,1.7,1.9,1.7,3.2C20.9,16,19.9,17.4,18.2,18.3z M20.6,10.4C19,9,16.8,8.3,14.8,8.4c-0.4-1.3-1.2-2.3-2.2-3.1
	c-0.2-0.1-0.3-0.2-0.5-0.3c1-1.1,2.6-1.8,4.5-1.8c3,0,5.5,1.9,5.5,4.3C22.1,8.6,21.5,9.7,20.6,10.4z"/>
</svg>
