<?xml version="1.0" encoding="UTF-8"?>
<svg id="svg2" xmlns="http://www.w3.org/2000/svg" version="1.1" xmlns:cc="http://creativecommons.org/ns#" xmlns:dc="http://purl.org/dc/elements/1.1/" xmlns:inkscape="http://www.inkscape.org/namespaces/inkscape" xmlns:rdf="http://www.w3.org/1999/02/22-rdf-syntax-ns#" xmlns:sodipodi="http://sodipodi.sourceforge.net/DTD/sodipodi-0.dtd" xmlns:svg="http://www.w3.org/2000/svg" viewBox="0 0 24 24">
  <defs>
    <style>
      .cls-1 {
        fill: #333;
      }

      .cls-1, .cls-2 {
        stroke-width: 0px;
      }

      .cls-2 {
        fill: #00609c;
      }
    </style>
  </defs>
  <path class="cls-1" d="M7.8,14.4l-1.6-2.2-.5,1.1-3.2.5,2.3,2.2-.6,3.2,2.9-1.6.7-3.2ZM7.2,16.7l-1.8,1,.3-2.1-1.5-1.5,2.1-.3.2-.6.9,1.1-.2,2.4Z"/>
  <path class="cls-1" d="M21.3,13.7l-3.2-.5-.4-.9-1.6,1.9.7,3.4,2.9,1.6-.6-3.2,2.3-2.2ZM16.8,16.7l-.3-2.4,1-1,.2.6,2.1.3-1.5,1.5.3,2.1-1.8-1.1Z"/>
  <path class="cls-2" d="M21.4,9.7l-6.6-1-2.9-5.8-2.9,5.9-6.6,1,4.8,4.7-1.1,6.6,5.9-3.1,5.9,3.1-1.1-6.6,4.6-4.8ZM12,16.7l-4.6,2.5.9-5.2-3.8-3.6,5.2-.7,2.3-4.7,2.3,4.7,5.2.7-3.8,3.6.9,5.2-4.6-2.5Z"/>
</svg>