<?xml version="1.0" encoding="UTF-8"?>
<svg id="Layer_1" data-name="Layer 1" xmlns="http://www.w3.org/2000/svg" version="1.1" viewBox="0 0 24 24">
  <defs>
    <style>
      .cls-1 {
        fill: #000;
        stroke-width: 0px;
      }
    </style>
  </defs>
  <path class="cls-1" d="M19.1,8.5c.2-.5.3-1,.3-1.6,0-2.1-1.8-3.8-3.9-3.8,0,0,0,0-.1,0-1.3,0-2.4.6-3.2,1.6-.7-.6-1.5-.9-2.4-.9-2,0-3.7,1.4-3.8,3.4,0,0,0,0,0,.1v.3c-1.7.3-2.9,1.8-3,3.5,0,2,1.7,3.6,3.7,3.6.8,0,1.5-.2,2.2-.7.7,1.5,2.5,2.1,4,1.4.6-.3,1.1-.8,1.4-1.4.9,1.1,2.3,1.5,3.7,1.2,2-.4,3.3-2.3,2.9-4.3-.2-1-.8-1.9-1.8-2.5ZM17.2,14.2c-.7,0-1.4-.3-1.9-.9v-.2c-.5-.5-1.2-.5-1.7-.1-.1.1-.2.3-.3.4v.2c-.5.9-1.4,1.2-2.3.9-.4-.2-.7-.5-.9-.9h0c-.2-.6-.9-.9-1.5-.6,0,0-.1,0-.2,0h-.1c-.4.4-1,.5-1.5.5-1.3,0-2.4-1-2.5-2.4,0,0,0,0,0,0,0-1.1.8-2.1,2-2.3h.4c.3-.2.6-.5.6-.8v-.6h0c-.1-.8.3-1.6,1-2,1-.6,2.2-.5,3.1.2l.4.3c.3.3.8.2,1,0,0,0,0,0,0,0l.3-.4c.5-.7,1.4-1.1,2.2-1.1,1.4,0,2.7,1,2.8,2.4,0,0,0,0,0,.1,0,.4,0,.7-.2,1.1l-.2.4c-.1.3,0,.7.3.9l.4.2c.7.4,1.2,1.2,1.2,2.1,0,1.4-1.1,2.5-2.5,2.5Z"/>
  <path class="cls-1" d="M11.8,6.7c-.5,0-1,.1-1.4.5-.3.2-.5.6-.5.9,0,.1,0,.2.2.3,0,0,0,0,0,0h.6c.1,0,.2,0,.2,0,0-.2.2-.4.3-.5.2-.1.4-.2.7-.2.2,0,.5,0,.7.2.2.1.2.3.2.5,0,.1,0,.3-.1.4-.2.2-.4.3-.6.5-.3.2-.5.4-.6.7-.1.2-.2.5-.2.7,0,0,0,.3.2.3h.5c.1,0,.2,0,.2-.2,0,0,0,0,0,0,0-.1,0-.3,0-.4.1-.2.3-.3.4-.5.3-.2.6-.5.9-.8.1-.2.2-.4.2-.7,0-.4-.2-.8-.5-1.1-.4-.4-.9-.5-1.5-.5Z"/>
  <rect class="cls-1" x="11.3" y="11.6" width="1.1" height="1.1" rx=".2" ry=".2"/>
  <path class="cls-1" d="M7.6,15.2c-1,0-1.8.8-1.8,1.8,0,1,.8,1.8,1.8,1.8,1,0,1.8-.8,1.8-1.8,0-1-.8-1.8-1.8-1.8,0,0,0,0,0,0ZM7.6,17.6c-.3,0-.6-.3-.6-.6s.3-.6.6-.6.6.3.6.6h0c0,.3-.3.6-.6.6,0,0,0,0,0,0Z"/>
  <path class="cls-1" d="M4.8,17.9c-.9,0-1.5.7-1.5,1.5s.7,1.5,1.5,1.5c.8,0,1.5-.7,1.5-1.5,0-.9-.7-1.5-1.5-1.6,0,0,0,0,0,0ZM4.8,19.8c-.2,0-.4-.2-.4-.4,0-.2.2-.4.4-.4s.4.2.4.4-.2.4-.4.4Z"/>
  <path class="cls-1" d="M17,17c0-1-.8-1.8-1.8-1.8-1,0-1.8.8-1.8,1.8,0,1,.8,1.8,1.8,1.8,0,0,0,0,0,0,1,0,1.8-.8,1.8-1.8h0ZM15.2,17.6c-.3,0-.6-.3-.6-.6s.3-.6.6-.6c.3,0,.6.3.6.6h0c0,.3-.3.6-.6.6Z"/>
  <path class="cls-1" d="M17.9,17.9c-.9,0-1.5.7-1.5,1.5s.7,1.5,1.5,1.5c.8,0,1.5-.7,1.5-1.5,0-.9-.7-1.5-1.5-1.6,0,0,0,0,0,0ZM17.9,19.8c-.2,0-.4-.2-.4-.4s.2-.4.4-.4.4.2.4.4-.2.4-.4.4Z"/>
</svg>