<?xml version="1.0" encoding="UTF-8"?>
<svg id="Calque_1" data-name="Calque 1" xmlns="http://www.w3.org/2000/svg" version="1.1" viewBox="0 0 24 24">
  <defs>
    <style>
      .cls-1 {
        fill: #00609c;
        stroke-width: 0px;
      }
    </style>
  </defs>
  <polygon class="cls-1" points="13.8 21.1 12.8 19.8 11.9 21.1 13.8 21.1"/>
  <path class="cls-1" d="M17.4,2.6H6.6c-1.1,0-1.9.9-1.9,1.9v14.6c0,1.1.9,1.9,1.9,1.9h2.4v-1.1h-2.5c-.5,0-.9-.4-.9-.9V4.5c0-.5.4-.9.9-.9h11c.5,0,.9.4.9.9v14.6c0,.5-.4.9-.9.9h-.5v1h.5c1.1,0,1.9-.9,1.9-1.9V4.5c0-1.1-.9-1.9-1.9-1.9Z"/>
  <path class="cls-1" d="M15.8,21.4l-2.9-3.6-2.8,3.6v-8.8c.4.4.9.6,1.6.6s1.1-.3,1.3-.5c.3.3,1,.6,1.8.4.5,0,.8-.3,1.1-.6v8.7Z"/>
  <path class="cls-1" d="M17.1,8.5c-.1-.7-.8-1.2-1.5-1.2.2-.3.3-.7.2-1.1-.2-.8-1-1.3-1.8-1.2-.4,0-.8.4-1,.7-.3-.6-1-.9-1.7-.7-.8.2-1.3,1-1.2,1.8,0,.1,0,.3.2.4-.1,0-.2,0-.4,0-.8.2-1.3,1-1.2,1.8.1.7.8,1.2,1.5,1.2-.2.3-.3.7-.2,1.1.2.8,1,1.3,1.8,1.2.4,0,.8-.4,1-.7.3.6,1,.9,1.7.7.8-.2,1.3-1,1.2-1.8,0-.1,0-.3-.2-.4,0,0,.2,0,.3,0,.9-.2,1.4-1,1.2-1.8ZM13.5,10.9c-1.1.3-2.3-.5-2.5-1.6-.3-1.1.4-2.3,1.6-2.5,1.1-.3,2.2.5,2.5,1.6.3,1.1-.4,2.3-1.6,2.5Z"/>
</svg>