<?xml version="1.0" encoding="UTF-8"?>
<svg id="Layer_1" data-name="Layer 1" xmlns="http://www.w3.org/2000/svg" version="1.1" viewBox="0 0 24 24">
  <defs>
    <style>
      .cls-1 {
        fill: #00609c;
        stroke-width: 0px;
      }
    </style>
  </defs>
  <path class="cls-1" d="M19.7,14.7c-1.2-.8-2.7-1.2-4.1-1.2s-2.5.3-3.6.9c-1.1-.6-2.4-.9-3.6-.9s-2.9.4-4.1,1.2c-1.1.7-1.7,1.7-1.7,2.9v1.1c0,.4.3.7.7.7h17.6c.4,0,.7-.3.7-.7v-1.1c0-1.1-.7-2.1-1.8-2.9ZM13.2,18.4H3.5v-.5c0-1.7,1.7-2.6,3-3.1,1.8-.6,3.7-.3,5.4.8.7.5,1.4,1.3,1.4,2.3v.5h0ZM20.6,18.4h-6.2c0-1.2-.3-2.4-1.3-3.3,1.9-.9,4.3-.6,6.2.4.7.5,1.4,1.2,1.4,2.3v.6s0,0,0,0Z"/>
  <path class="cls-1" d="M8.2,12.6c1.9,0,3.4-1.4,3.4-3.3-.2-4.4-6.6-4.4-6.9,0,0,1.8,1.6,3.3,3.5,3.3h0ZM5.9,9.3c0-1.2,1.1-2.2,2.5-2.2s2.2,1,2.2,2.2c-.1,3-4.6,3-4.7,0h0Z"/>
  <path class="cls-1" d="M15.6,12.9c1.9,0,3.4-1.4,3.4-3.3-.2-4.4-6.6-4.4-6.9,0,0,1.8,1.6,3.3,3.5,3.3h0ZM15.6,7.3c1.3,0,2.4,1,2.4,2.2-.1,3-4.6,3-4.7,0,0-1.2,1-2.2,2.4-2.2h0Z"/>
</svg>