<?xml version="1.0" encoding="utf-8"?>
<!-- Generator: Adobe Illustrator 15.0.0, SVG Export Plug-In . SVG Version: 6.00 Build 0)  -->
<!DOCTYPE svg PUBLIC "-//W3C//DTD SVG 1.1//EN" "http://www.w3.org/Graphics/SVG/1.1/DTD/svg11.dtd">
<svg version="1.1" id="Calque_1" xmlns="http://www.w3.org/2000/svg" xmlns:xlink="http://www.w3.org/1999/xlink" x="0px" y="0px"
	 width="24px" height="24px" viewBox="0 0 24 24" enable-background="new 0 0 24 24" xml:space="preserve">
<path display="none" fill="#007CB7" d="M20.341,2.464h-5.006C14.86,1.097,13.548,0.084,12,0.084c-1.547,0-2.86,1.013-3.335,2.38
	H3.659c-1.313,0-2.385,1.073-2.385,2.385v16.687c0,1.308,1.073,2.38,2.385,2.38h16.682c1.313,0,2.386-1.072,2.386-2.38V4.849
	C22.727,3.537,21.653,2.464,20.341,2.464z M12,2.464c0.653,0,1.189,0.538,1.189,1.195c0,0.655-0.536,1.19-1.189,1.19
	c-0.654,0-1.19-0.535-1.19-1.19C10.81,3.001,11.346,2.464,12,2.464z M14.386,19.15H6.039v-2.385h8.347V19.15z M17.961,14.386H6.039
	V12h11.922V14.386z M17.961,9.615H6.039v-2.38h11.922V9.615z"/>
<g id="Layer_1">
	<path display="none" fill="#007CB7" d="M14.436,0H5.007C3.629,0,2.431,1.137,2.431,2.52v18.959C2.431,22.863,3.567,24,4.951,24
		h14.098c1.384,0,2.521-1.137,2.521-2.521V7.077L14.436,0z M19.527,20.884c0,0.54-0.479,1.018-1.019,1.018H5.612
		c-0.543,0-1.021-0.478-1.021-1.018V3.059c0-0.542,0.484-1.022,1.021-1.022h8.036l5.879,5.884V20.884z"/>
	<polygon display="none" fill="#007CB7" points="19.527,8.337 13.232,8.337 13.232,2.036 	"/>
	<g>
		<path fill="#007CB7" d="M5.367,15.421c-1.322,0-2.402,1.08-2.402,2.402v3.78C2.965,22.92,4.045,24,5.367,24h15.842v-1.856H5.553
			c-0.422,0-0.782-0.36-0.782-0.782v-3.358c0-0.422,0.36-0.782,0.782-0.782h15.662v-1.799L5.367,15.421z"/>
		<rect x="5.485" y="18.363" fill="#007CB7" width="15.668" height="0.416"/>
		<rect x="5.485" y="19.499" fill="#007CB7" width="15.668" height="0.423"/>
		<rect x="5.485" y="20.642" fill="#007CB7" width="15.668" height="0.422"/>
	</g>
	<g>
		<path fill="#007CB7" d="M17.912,14.701c1.137,0,2.102-0.962,2.102-2.101v-3.24c0-1.142-0.965-2.104-2.102-2.104H4.354v1.623
			h13.378c0.36,0,0.664,0.301,0.664,0.661v2.88c0,0.36-0.304,0.661-0.664,0.661H4.354v1.624h13.558V14.701z"/>
		<rect x="4.354" y="11.757" fill="#007CB7" width="13.378" height="0.36"/>
		<rect x="4.354" y="10.801" fill="#007CB7" width="13.378" height="0.36"/>
		<rect x="4.354" y="9.839" fill="#007CB7" width="13.378" height="0.36"/>
	</g>
	<g>
		<path fill="#007CB7" d="M6.751,0.178c-0.957,0-1.8,0.778-1.8,1.8v2.82c0,0.962,0.776,1.8,1.8,1.8h11.578V5.22H6.875
			c-0.304,0-0.543-0.242-0.543-0.543v-2.46c0-0.299,0.233-0.542,0.543-0.542h11.46V0.172L6.751,0.178z"/>
		<rect x="6.875" y="2.396" fill="#007CB7" width="11.521" height="0.302"/>
		<rect x="6.875" y="3.24" fill="#007CB7" width="11.521" height="0.3"/>
		<rect x="6.875" y="4.078" fill="#007CB7" width="11.521" height="0.299"/>
	</g>
</g>
<g id="Layer_2">
</g>
</svg>
