<?xml version="1.0" encoding="utf-8"?>
<!-- Generator: Adobe Illustrator 15.0.0, SVG Export Plug-In . SVG Version: 6.00 Build 0)  -->
<!DOCTYPE svg PUBLIC "-//W3C//DTD SVG 1.1//EN" "http://www.w3.org/Graphics/SVG/1.1/DTD/svg11.dtd">
<svg version="1.1" id="Calque_1" xmlns="http://www.w3.org/2000/svg" xmlns:xlink="http://www.w3.org/1999/xlink" x="0px" y="0px"
	 width="24px" height="24px" viewBox="0 0 24 24" enable-background="new 0 0 24 24" xml:space="preserve">
<path fill="#007CB7" d="M20.341,2.464h-5.006C14.86,1.097,13.548,0.084,12,0.084c-1.547,0-2.86,1.013-3.335,2.38H3.659
	c-1.313,0-2.385,1.073-2.385,2.385v16.687c0,1.308,1.073,2.38,2.385,2.38h16.682c1.313,0,2.386-1.072,2.386-2.38V4.849
	C22.727,3.537,21.653,2.464,20.341,2.464z M12,2.464c0.653,0,1.189,0.538,1.189,1.195c0,0.655-0.536,1.19-1.189,1.19
	c-0.654,0-1.19-0.535-1.19-1.19C10.81,3.001,11.346,2.464,12,2.464z M14.386,19.15H6.039v-2.385h8.347V19.15z M17.961,14.386H6.039
	V12h11.922V14.386z M17.961,9.615H6.039v-2.38h11.922V9.615z"/>
</svg>
