<?xml version="1.0" encoding="utf-8"?>
<!-- Generator: Adobe Illustrator 26.3.1, SVG Export Plug-In . SVG Version: 6.00 Build 0)  -->
<svg version="1.1" id="Calque_1" xmlns="http://www.w3.org/2000/svg" xmlns:xlink="http://www.w3.org/1999/xlink" x="0px" y="0px"
	 viewBox="0 0 512 512" style="enable-background:new 0 0 512 512;" xml:space="preserve">
<style type="text/css">
	.st0{fill:#00609c;}
</style>
<path class="st0" d="M386.9,359.3c7.6,7.6,7.6,19.9,0,27.6s-19.9,7.6-27.6,0l-8.1-7.6c-25.9,20.5-59.1,32.8-95.7,32.8
	c-35.5,0-68.7-12.3-95.2-32.8l-7.6,7.6c-7.6,7.6-20,7.6-27.6,0s-7.6-19.9,0-27.6l7.6-8.1c-20.5-25.9-32.8-59.1-32.8-95.7
	c0-35.5,12.2-68.7,32.8-95.2l-7.6-7.6c-7.6-7.6-7.6-20,0-27.6s20-7.6,27.6,0l7.6,7.6c26.5-20.5,59.6-32.8,95.2-32.8
	c36.6,0,69.8,12.2,95.7,32.8l8.1-7.6c7.6-7.6,19.9-7.6,27.6,0c7.6,7.6,7.6,20,0,27.6l-7.6,7.6c20.5,26.5,32.8,59.6,32.8,95.2
	c0,36.6-12.3,69.8-32.8,95.7L386.9,359.3z M288.5,316.1c-9.7,5.2-20.7,8.2-33,8.2c-11.2,0-22.3-3-32-8.2l-35.3,35.4
	c19.1,13.7,42.5,21.6,67.3,21.6c25.9,0,49.3-8,68.4-21.6L288.5,316.1z M373.1,255.5c0-24.8-8-48.2-21.6-67.3l-35.4,35.3
	c5.2,9.7,8.2,20.7,8.2,32.5s-3,22.8-8.2,32.5l35.4,35.3c13.7-19.1,21.6-42.5,21.6-67.8V255.5z M255.5,138.4
	c-24.8,0-48.2,8.6-67.3,22.2l35.3,35.4c9.7-5.2,20.7-8.8,32-8.8c12.3,0,23.4,3.5,33,8.8l35.3-35.4c-19.1-13.6-42.5-22.2-67.8-22.2
	L255.5,138.4L255.5,138.4z M195.9,288.5c-5.2-9.7-8.8-20.7-8.8-33c0-11.2,3.5-22.3,8.8-32l-35.4-35.3
	c-13.6,19.1-22.2,42.5-22.2,67.3c0,25.9,8.6,49.3,22.2,68.4L195.9,288.5z M255.5,226.2c-15.6,0-29.3,13.7-29.3,29.3
	c0,16.7,13.7,29.3,29.3,29.3c16.7,0,29.8-12.6,29.8-29.3C285.3,239.8,272.2,226.2,255.5,226.2z"/>
</svg>
