<?xml version="1.0" encoding="utf-8"?>
<!-- Generator: Adobe Illustrator 22.1.0, SVG Export Plug-In . SVG Version: 6.00 Build 0)  -->
<svg version="1.1" id="Layer_1" focusable="false" xmlns="http://www.w3.org/2000/svg" xmlns:xlink="http://www.w3.org/1999/xlink"
	 x="0px" y="0px" viewBox="0 0 448 512" style="enable-background:new 0 0 448 512;" xml:space="preserve">
<style type="text/css">
	.st0{fill:#007CB7;}
</style>
<path class="st0" d="M296.3,255.3c21.9-19.8,35.7-48.4,35.7-80.3c0-17.4-4.5-33.6-11.8-48.1l81.3-19.6c15.4-3.7,15.4-22.9,0-26.6
	L240.8,41.9c-11-2.6-22.5-2.6-33.5,0L107.1,66.1L296.3,255.3z"/>
<path class="st0" d="M78.4,186.4l-27.8-27.8c-5.3,3.6-8.9,9.4-8.9,16.3c0,7.1,3.9,13,9.4,16.6L38,244.2c-1.4,5.8,1.8,11.8,6.4,11.8
	h35.3c4.6,0,7.8-6,6.4-11.8l-13.2-52.6C75,190.2,76.9,188.4,78.4,186.4z"/>
<path class="st0" d="M253.5,361.5L224,391l-80.5-80.5C83.2,313.1,35,362.5,35,423.4v8.1c0,22.4,18.1,40.5,40.5,40.5H364L253.5,361.5
	z"/>
<rect x="-63.4" y="236.5" transform="matrix(0.7071 0.7071 -0.7071 0.7071 247.6871 -82.9734)" class="st0" width="574.9" height="42"/>
</svg>
