<?xml version="1.0" encoding="utf-8"?>
<!-- Generator: Adobe Illustrator 22.1.0, SVG Export Plug-In . SVG Version: 6.00 Build 0)  -->
<svg version="1.1" id="Layer_1" focusable="false" xmlns="http://www.w3.org/2000/svg" xmlns:xlink="http://www.w3.org/1999/xlink"
	 x="0px" y="0px" viewBox="0 0 562 512" style="enable-background:new 0 0 562 512;" xml:space="preserve">
<style type="text/css">
	.st0{fill:#007CB7;}
</style>
<path class="st0" d="M310.9,511.3l-90.1-90c-15.3-15.3-23.9-36-23.9-57.7v-62.8c-15.5-2.6-30.3-7.2-44.2-13.6h-16.7
	C61.9,287.2,1.7,347.4,1.7,421.6v41.6c0,26.5,21.5,48,48,48h0.1c-0.1,0-0.1,0-0.2,0H310.9z"/>
<path class="st0" d="M237.9,221.5h55c2.9-0.6,5.9-1,9-1h10.5c24.4-23.3,39.6-56.2,39.6-92.6C352,57.3,294.7,0,224,0S96,57.3,96,128
	c0,61.7,43.8,113.2,102,125.3C202.1,235,218.4,221.5,237.9,221.5z"/>
<path class="st0" d="M475.4,361.9L475.4,361.9l-90.3-90.2c-12-12-28.3-18.7-45.3-18.7h-79.3c-17.7,0-32,14.3-32,32v79.2
	c0,17,6.7,33.2,18.7,45.2l90.3,90.2c12.5,12.5,32.8,12.5,45.3,0l92.5-92.5C487.9,394.6,487.9,374.4,475.4,361.9z M292.6,340.9
	c-13.3,0-24-10.7-24-24s10.7-24,24-24s24,10.7,24,24C316.6,330.1,305.9,340.9,292.6,340.9z"/>
<path class="st0" d="M551,358.4L551,358.4l-90.3-90.2c-12-12-28.3-18.7-45.3-18.7h-27.8c12.8,2.3,24.8,8.4,34.1,17.7l90.3,90.2v0
	c12.5,12.5,12.5,32.7-0.1,45.2l-92.5,92.5c-1.2,1.2-2.5,2.3-3.8,3.2c12.6,10.2,31.1,9.5,42.8-2.2l92.5-92.5
	C563.5,391.1,563.5,370.9,551,358.4z"/>
</svg>
