<?xml version="1.0" encoding="utf-8"?>
<!-- Generator: Adobe Illustrator 26.3.1, SVG Export Plug-In . SVG Version: 6.00 Build 0)  -->
<svg version="1.1" id="Calque_1" xmlns="http://www.w3.org/2000/svg" xmlns:xlink="http://www.w3.org/1999/xlink" x="0px" y="0px"
	 viewBox="0 0 512 512" style="enable-background:new 0 0 512 512;" xml:space="preserve">
<style type="text/css">
	.st0{fill:#00609c;}
</style>
<path class="st0" d="M81,337.3c0,18.8,15.7,34.1,35,34.1h280c19.3,0,35-15.3,35-34.1V219.9l-151.5,73.8c-7.3,3.6-15.4,5.4-23.5,5.4
	s-16.1-1.8-23.5-5.4L81,219.9V337.3z"/>
<path class="st0" d="M263.9,263.2L431,181.7v-15c0-18.8-15.7-34.1-35-34.1H116c-19.3,0-35,15.3-35,34.1v15l167.2,81.5
	C253.1,265.6,259,265.6,263.9,263.2z"/>
</svg>
