<?xml version="1.0" encoding="utf-8"?>
<!-- Generator: Adobe Illustrator 26.3.1, SVG Export Plug-In . SVG Version: 6.00 Build 0)  -->
<svg version="1.1" id="Calque_1" xmlns="http://www.w3.org/2000/svg" xmlns:xlink="http://www.w3.org/1999/xlink" x="0px" y="0px"
	 viewBox="0 0 512 512" style="enable-background:new 0 0 512 512;" xml:space="preserve">
<style type="text/css">
	.st0{fill:#00426c;}
</style>
<path class="st0" d="M404.3,57.3c-96.1-33.1-200.2-33-296.4,0.3c-26.4,8.2-43.8,34.4-44,62.1l0.1,183.2
	c0,88.5,128.1,176.7,192,176.5c63.1,0.1,192-88.5,192-177l0-182.3C448,91.5,430.4,66.3,404.3,57.3z M152,200.3c0-22.1,17.9-40,40-40
	c22.1-0.1,40,17.8,40,39.8c0,4.2-0.8,8.1-2.1,12c-9.7-7.4-23-11.9-37.9-11.9c-15,0-28.4,4.6-38,11.9
	C152.1,208.5,152.2,204.4,152,200.3z M255.2,383.8c-56.5,0-102.4-42-107.2-94.9c24.8,21.6,63.4,35.7,107.4,35.7
	c43.9,0,82.5-14.2,107.3-35.9C358.5,341.4,312.6,383.6,255.2,383.8z M358.1,212c-9.7-7.3-23.2-11.9-38-11.9
	c-14.8,0.1-28.2,4.6-38,12.1c-1.2-3.9-2-7.8-2-12c0-22.1,17.9-40,40-40c22.1,0,40,17.8,39.9,39.9C360,204.2,359.2,208.2,358.1,212z"
	/>
</svg>
