<?xml version="1.0" encoding="utf-8"?>
<!-- Generator: Adobe Illustrator 26.3.1, SVG Export Plug-In . SVG Version: 6.00 Build 0)  -->
<svg version="1.1" id="Calque_1" xmlns="http://www.w3.org/2000/svg" xmlns:xlink="http://www.w3.org/1999/xlink" x="0px" y="0px"
	 viewBox="0 0 512 512" style="enable-background:new 0 0 512 512;" xml:space="preserve">
<style type="text/css">
	.st0{fill:#00609c;}
</style>
<path class="st0" d="M401.7,330.8l-13.3,57.6c-1.9,8.1-9,13.8-17.4,13.8c-144,0-261.2-117.2-261.2-261.3c0-8.4,5.7-15.5,13.8-17.4
	l57.6-13.3c8.4-1.9,16.9,2.4,20.4,10.3l26.6,62c3.1,7.3,1,15.8-5.1,20.8L192.4,228c19.4,39.5,51.5,71.7,91.1,91.1l25.2-30.7
	c5-6.2,13.5-8.3,20.8-5.1l62,26.6C398.8,313.8,403.7,322.5,401.7,330.8z"/>
</svg>
