<?xml version="1.0" encoding="utf-8"?>
<!-- Generator: Adobe Illustrator 26.3.1, SVG Export Plug-In . SVG Version: 6.00 Build 0)  -->
<svg version="1.1" id="Calque_1" xmlns="http://www.w3.org/2000/svg" xmlns:xlink="http://www.w3.org/1999/xlink" x="0px" y="0px"
	 viewBox="0 0 512 512" style="enable-background:new 0 0 512 512;" xml:space="preserve">
<style type="text/css">
	.st0{fill:#00609c;}
</style>
<path class="st0" d="M256,354.2c-10,0-20-2.5-28.6-9.2L99.9,252.9v129.9c0,16.2,13.1,29.3,29.3,29.3h253.7
	c16.2,0,29.3-13.1,29.3-28.7V252.9L284.6,345C276.1,351.1,266,354.2,256,354.2z M400.9,199.3c-5.4-4.3-10.5-8.2-18-14v-26.9
	c0-16.2-13.1-29.3-29.3-29.3h-47.3c-1.9-1.4-3.6-2.6-5.6-4c-10.2-7.5-30.5-25.5-44.7-25.3c-14.1-0.2-34.5,17.8-44.8,25.3
	c-2,1.4-3.7,2.6-5.6,4h-47.2c-16.2,0-29.3,13.1-29.3,29.3v26.9c-7.5,5.7-12.7,9.7-18.1,14c-7.1,5.5-11.2,14-11.2,23v6.5l58.5,42.3
	V158.4h195.1V271l58.5-42.3v-6.4C412.1,213.3,408,204.8,400.9,199.3z M207.2,255.5h97.6c5.4,0,9.8-4.4,9.8-9.2
	c0-5.4-4.4-9.8-9.8-9.8h-97.6c-5.4,0-9.8,4.4-9.8,9.8C197.5,251.6,201.9,255.5,207.2,255.5z M207.2,216.4h97.6
	c5.4,0,9.8-4.4,9.8-9.8c0-5.4-4.4-9.2-9.8-9.2h-97.6c-5.4,0-9.8,4.4-9.8,9.2C197.5,212.6,201.9,216.4,207.2,216.4z"/>
</svg>
