<?xml version="1.0" encoding="utf-8"?>
<!-- Generator: Adobe Illustrator 27.6.1, SVG Export Plug-In . SVG Version: 6.00 Build 0)  -->
<svg version="1.1" id="Logos" xmlns="http://www.w3.org/2000/svg" xmlns:xlink="http://www.w3.org/1999/xlink" x="0px" y="0px"
	 viewBox="0 0 257.5 113.4" style="enable-background:new 0 0 257.5 113.4;" xml:space="preserve">
<style type="text/css">
	.st0{clip-path:url(#SVGID_00000090273907474099017470000002441712357769234308_);fill:#B5AEA6;}
	.st1{clip-path:url(#SVGID_00000172403102700358765120000012856161761639307945_);fill:#B5AEA6;}
	.st2{clip-path:url(#SVGID_00000145751697929988568960000016438035545007045000_);fill:#B5AEA6;}
	.st3{clip-path:url(#SVGID_00000125561408412275145730000003761989902130523802_);fill:#005C90;}
	.st4{clip-path:url(#SVGID_00000152224934973575444250000006894623004046116764_);fill:#005C90;}
	.st5{clip-path:url(#SVGID_00000148642377938166610150000010170650707250898564_);fill:#005C90;}
</style>
<g>
	<g>
		<g>
			<defs>
				<rect id="SVGID_1_" x="49.1" y="39" width="159.3" height="35.5"/>
			</defs>
			<clipPath id="SVGID_00000149360119268130659120000015963029316214205317_">
				<use xlink:href="#SVGID_1_"  style="overflow:visible;"/>
			</clipPath>
			<path style="clip-path:url(#SVGID_00000149360119268130659120000015963029316214205317_);fill:#B5AEA6;" d="M171.2,58.7
				c2.1,0.6,6.8,2.2,6.8,7.4c0,2-0.8,4.2-2.9,5.8c-2.8,2.2-6.5,2.4-8.4,2.4c-2.8,0-5.2-0.5-7.2-1.2c-0.3-0.1-0.5-0.2-0.8-0.3
				l-0.3-0.4c0.2-1.9,0.2-2.2,0.3-4.1l0.5-0.1c0.9,0.7,3.2,2.4,7.3,2.4s5.6-2.2,5.6-3.7c0-2.3-2.2-3-5.4-4l-1.7-0.5
				c-2.1-0.6-6.8-2.1-6.8-7.1c0-5.1,4.7-7.6,10.6-7.6c3.9,0,6.6,1,7.5,1.4l0.3,0.3c-0.2,1.8-0.3,2-0.4,3.9l-0.5,0.2
				c-1.3-0.8-3.3-2-6.7-2c-0.7,0-1.5,0-2.2,0.2c-1.6,0.4-2.9,1.4-2.9,3c0,2.1,2.1,2.8,5.4,3.7L171.2,58.7z"/>
		</g>
		<g>
			<defs>
				<rect id="SVGID_00000073700558479170296550000001087371939934997947_" x="49.1" y="39" width="159.3" height="35.5"/>
			</defs>
			<clipPath id="SVGID_00000153701291513569962110000014329350618457308312_">
				<use xlink:href="#SVGID_00000073700558479170296550000001087371939934997947_"  style="overflow:visible;"/>
			</clipPath>
			<path style="clip-path:url(#SVGID_00000153701291513569962110000014329350618457308312_);fill:#B5AEA6;" d="M208.4,60.5
				c-0.1-3.4-0.8-6.9-3.2-9.5c-2.3-2.5-5.8-3.5-9.4-3.5c-5.2,0-8.3,2-9.7,3.4c-3.5,3.3-3.6,8.1-3.6,10c0,1.6,0.1,6.6,3.6,10
				c1.7,1.6,4.7,3.3,9.4,3.3c3.7,0,6.7-0.8,9-3c1.7-1.6,2.8-3.5,3.4-6C208.3,63.8,208.4,62.2,208.4,60.5 M202.7,60.7
				c0.1,1,0,4.3-1.2,6.6c-1.5,2.7-4,3.3-6,3.3c-1,0-2.1-0.2-3.1-0.6c-4.1-2-4.2-6.9-4.2-8.9c0-2.1,0.2-4.9,1.6-6.9
				c1.8-2.8,4.8-2.9,5.8-2.9c2.9,0,4.6,1.3,5.6,2.8C202.5,56.2,202.7,59.5,202.7,60.7"/>
		</g>
		<g>
			<defs>
				<rect id="SVGID_00000054237275050284237740000002718318764741345469_" x="49.1" y="39" width="159.3" height="35.5"/>
			</defs>
			<clipPath id="SVGID_00000021088805056223793940000004775887996996762514_">
				<use xlink:href="#SVGID_00000054237275050284237740000002718318764741345469_"  style="overflow:visible;"/>
			</clipPath>
			<path style="clip-path:url(#SVGID_00000021088805056223793940000004775887996996762514_);fill:#B5AEA6;" d="M152.4,60.9
				c0,1.7-1.4,3.1-3.1,3.1c-1.7,0-3.1-1.4-3.1-3.1s1.4-3.1,3.1-3.1C151,57.8,152.4,59.2,152.4,60.9"/>
		</g>
		<g>
			<defs>
				<rect id="SVGID_00000098915583925073727640000008823908072695517373_" x="49.1" y="39" width="159.3" height="35.5"/>
			</defs>
			<clipPath id="SVGID_00000008867440131485779820000017722883242416750239_">
				<use xlink:href="#SVGID_00000098915583925073727640000008823908072695517373_"  style="overflow:visible;"/>
			</clipPath>
			<path style="clip-path:url(#SVGID_00000008867440131485779820000017722883242416750239_);fill:#005C90;" d="M80.8,39.3
				c-0.1,3.8-0.1,6.1-0.1,9.6c0,8.3,0.2,16.5,0.6,24.8L81,74c-4.4,0-5.5,0-9.4,0.1l-0.3-0.3c0.3-6.9,0.3-8.6,0.2-15.2
				c-2.1,0-4.2-0.1-6.3-0.1c-2,0-4,0-6.3,0.1c0.1,7.1,0.1,8.9,0.4,15L59,73.9c-4.6,0-5.5,0-9.4,0.1l-0.3-0.3c0.1-4.1,0.2-6.5,0.2-11
				c0-12.2-0.3-18.3-0.6-23.3l0.3-0.3c4.5,0,5.3,0,9.4-0.1l0.3,0.3l-0.1,13c1.8,0,3.7,0,5.5,0c2.4,0,4.7,0,7-0.1
				c-0.1-5.8-0.1-7.2-0.4-12.8l0.3-0.3c4.4,0,5.1,0,9.3-0.1L80.8,39.3z"/>
		</g>
		<g>
			<defs>
				<rect id="SVGID_00000039827748418069174670000009746089972698747301_" x="49.1" y="39" width="159.3" height="35.5"/>
			</defs>
			<clipPath id="SVGID_00000121980149114266124990000008822987734185950086_">
				<use xlink:href="#SVGID_00000039827748418069174670000009746089972698747301_"  style="overflow:visible;"/>
			</clipPath>
			<path style="clip-path:url(#SVGID_00000121980149114266124990000008822987734185950086_);fill:#005C90;" d="M111.1,66.6
				c-2,1-4.3,2.1-8.2,2.1c-3.1,0-5.3-0.9-6.5-2.7c-0.8-1-0.9-2-1.1-3l16.9-0.3l0.3-0.3c-0.1-2.4-0.1-4.9-0.8-7.3
				c-1.8-5.8-5.9-7-7.6-7.4c-1.3-0.3-2.5-0.4-3.7-0.4c-8.2,0-13.6,5.1-13.6,13.6c0,2.3,0.4,4.7,1.3,6.5c3,6.6,10.1,7.2,13.9,7.2
				c4.3,0,6.2-0.7,9-1.8l0.3-0.4l0.4-5.6L111.1,66.6z M95.3,57.8c0.2-1.5,0.5-3.6,2.5-4.8c0.6-0.4,1.4-0.5,2.1-0.5
				c1.7,0,2.8,0.8,3.3,1.7c0.7,1.1,0.8,2.3,0.8,3.4L95.3,57.8z"/>
		</g>
		<g>
			<defs>
				<rect id="SVGID_00000028308745250690270880000001876245359035901327_" x="49.1" y="39" width="159.3" height="35.5"/>
			</defs>
			<clipPath id="SVGID_00000083052005207632113760000002526189998624479377_">
				<use xlink:href="#SVGID_00000028308745250690270880000001876245359035901327_"  style="overflow:visible;"/>
			</clipPath>
			<path style="clip-path:url(#SVGID_00000083052005207632113760000002526189998624479377_);fill:#005C90;" d="M133.2,57.8
				c2.9,1,6.9,2.5,6.9,7.9c0,0.3,0,0.7-0.1,1.1c-0.9,7-8.8,7.7-12.8,7.7c-3.8,0-6-0.8-8.6-1.7l-0.3-0.4c0.2-2.5,0.3-3,0.4-5.6
				l0.5-0.2c0.8,0.6,1.2,0.9,2.1,1.4c1.9,0.9,4.1,1.4,5.5,1.4c2.9,0,4.1-1.3,4.1-2.6c0-1.8-2.3-2.5-3.7-3l-2-0.7
				c-2.5-0.9-6.8-2.5-6.8-7.7c0-2,0.7-3.4,1.4-4.3c2.7-3.7,7.8-3.9,10.4-3.9c3.4,0,5.5,0.6,8,1.2l0.3,0.3l-0.5,5.4l-0.5,0.1
				c-1.3-0.8-3.3-2.1-6.5-2.1s-3.7,1.6-3.7,2.2c0,1.4,1.4,1.9,3.2,2.5L133.2,57.8z"/>
		</g>
	</g>
</g>
</svg>
