<?xml version="1.0" encoding="utf-8"?>
<!-- Generator: Adobe Illustrator 15.0.0, SVG Export Plug-In . SVG Version: 6.00 Build 0)  -->
<!DOCTYPE svg PUBLIC "-//W3C//DTD SVG 1.1//EN" "http://www.w3.org/Graphics/SVG/1.1/DTD/svg11.dtd">
<svg version="1.1" xmlns="http://www.w3.org/2000/svg" xmlns:xlink="http://www.w3.org/1999/xlink" x="0px" y="0px"
	 width="280.36px" height="192px" viewBox="0 0 280.36 192" enable-background="new 0 0 280.36 192" xml:space="preserve">
<g id="Calque_1">
	<g>
		<path fill="#FFFFFF" d="M118.798,55.387c-4.8-22-23-34.599-43.799-34.599c-37.8,0-53.799,31.599-53.799,62.799
			c0,31.2,16,62.799,53.799,62.799c26.399,0,43.199-20.4,45.799-45.801h13.6c-3.8,35-26,57.4-59.399,57.4
			c-45,0-67.399-35.4-67.399-74.399c0-39,22.399-74.399,67.399-74.399c27,0,53.798,16.2,57.399,46.199H118.798z"/>
	</g>
	<g>
		<path fill="#FFFFFF" d="M155.524,12.188h13.6v131.199h80v11.6h-93.6V12.188z"/>
	</g>
</g>
<g id="Calque_2">
	<path fill-rule="evenodd" clip-rule="evenodd" fill="#FFFFFF" d="M26.739,122.836c0,0-0.082-3.457,0.165-5.597
		c0.246-2.14,0.74-3.457,1.069-4.689c0.33-1.235,0.659-2.882,0.988-3.623c0.329-0.74,0.823-1.808,0.823-1.808s-0.082,0-0.905-0.248
		s-1.317-1.4-1.317-1.4l-0.165-0.821c0,0-0.075-2.339-0.041-2.921c0.035-0.583,0.124-1.112,0.453-1.688
		c0.329-0.576,0.823-0.822,0.823-0.822s0.411-0.246,1.07-0.33c0.658-0.082,1.399-0.412,1.893-0.904
		c0.494-0.496,0.988-0.906,0.988-0.906s0.164-0.329,0.74-0.821c0.576-0.495,0.659-0.412,1.234-0.495
		c0.576-0.082,1.811-0.412,1.811-0.412l0.493-0.164c0,0-0.877-0.904-1.22-1.179s-0.295-0.645-0.672-1.125
		c-0.205-0.171-0.171-0.576-0.137-0.988c0.034-0.412-0.267-1.068-0.267-1.068s-0.631-0.817-0.802-1.262
		c-0.206-0.274-0.206-0.707-0.515-1.255c-0.308-0.549-0.006-1.681-0.006-1.681s-0.021-0.938,0.082-1.316
		c0.103-0.376,0.322-0.946,0.528-1.322c0.206-0.378,0.666-0.893,0.871-1.065c0.206-0.171,0.356-0.465,0.494-0.74
		c0.137-0.274,0.13-0.713,0.165-0.987c0.035-0.275,0.288-0.665,0.494-0.904c0.205-0.241,0.713-0.733,0.987-0.906
		c0.274-0.171,0.391-0.665,0.494-0.906c0.103-0.239,0.466-0.368,0.741-0.576c0.274-0.205,0.144-0.315,0.247-0.658
		c0.377-0.376,0.267-0.294,0.576-0.33c0.309-0.034,0.7,0.05,0.905,0.083c0.206,0.034,1.619,0.164,1.893,0.164
		c0.274,0,0.857,0.062,1.166-0.11c0.309-0.171,0.507-0.294,0.645-0.465s0.563-0.445,0.905-0.412
		c0.343,0.034,0.343,0.392,0.583,0.494c0.24,0.102,0.651,0.166,0.651,0.166s1.365,0.034,2.222,0.41
		c0.651,0.24,1.22,0.631,1.563,0.906c0.343,0.275,0.898,0.844,1.07,1.152c0.172,0.308,0.679,1.166,0.748,1.646
		c0.069,0.48,0.055,1.063-0.117,1.337c-0.171,0.274-0.514,0.837-0.651,1.008c-0.137,0.171-0.35,0.405-0.35,0.405l0.206,0.211
		l0.659,0.906c0,0,0.109,0.974,0.247,1.317c0.137,0.377,0.274,0.425,0.411,0.492c0.137,0.07,0.61,0.467,0.885,0.64
		c0.274,0.171,0.877,0.665,0.877,0.665s0.535,0.733,0.5,0.939c-0.034,0.206-0.192,0.438-0.535,0.472
		c-0.343,0.035-0.823,0.166-0.823,0.166s-0.17,0.37,0,0.576c0.172,0.206,0.275,0.193,0.446,0.467
		c0.172,0.274,0.254,0.564,0.254,0.564s0.012,0.431-0.026,0.533c-0.038,0.102-0.218,0.102-0.321,0.206
		c-0.103,0.103-0.27,0.205-0.27,0.205s0.416,0.088,0.494,0.165c0.077,0.077,0.218,0.22,0.192,0.387
		c-0.026,0.166-0.082,0.365-0.082,0.544c0,0.18-0.062,0.313,0.054,0.467c0.115,0.154,0.29,0.484,0.367,0.729
		c0.078,0.244,0.17,0.864-0.108,1.378c-0.25,0.466-0.67,0.529-1.165,0.693c-0.494,0.164-2.248,0.845-2.595,1.065
		c-0.347,0.217-0.62,0.543-0.696,0.826c-0.078,0.283,0,0.656,0,0.824c0,0.167-0.036,0.328,0.082,0.576
		c0.247,0.246,0.411,0.164,0.988,0.328c0.576,0.164,2.139,0.823,2.139,0.823s0.906,0.411,1.646,0.575
		c0.74,0.164,1.81,0.164,2.797,0.412c0.988,0.246,2.633,0.74,3.292,0.904c0.658,0.164,2.468,0.494,2.468,0.494
		s0.412,0.658,0.988,0.823c0.576,0.164,1.317,0,1.975,0.164c0.659,0.166,1.234,0.658,1.811,0.987c0.576,0.33,1.07,0.082,1.563,0.411
		c0.493,0.329,0.987,0.411,1.399,0.575c0.411,0.166,0.411,0.578,0.74,0.248c0.33-0.328-0.082-1.234-0.329-1.646
		c-0.247-0.41,0-0.576,0.165-0.986c0.164-0.411,0.329-0.247,0.823-0.741c0.082-0.494,0.741-0.494,0.741-0.494h0.823l1.728-10.78
		l0.412-1.81c0,0,0.493-0.412,0.658-0.164c0.165,0.246,0.082,1.398,0.082,1.398l-1.563,10.78c0,0,0.246,0,0.658,0.164
		c0.412,0.164,0.165,0.494,0.576,0.66c0.412,0.164,0.576-0.084,0.988,0.328c0.411,0.412,0.247,0.823,0.494,1.235
		c0.247,0.41,0.905,0.575,1.152,1.067c0.247,0.494,0.576,1.729,0.247,2.634c-0.329,0.906-0.906,2.058-1.729,2.882
		c-0.823,0.821-2.386,2.14-3.62,3.207c-0.412,2.058-0.412,3.703-0.412,4.691c0,0.987,0.083,0.576,0.33,1.399
		c0.247,0.822,0.494,1.316,0.329,2.056c-0.165,0.742-0.247,1.729-0.329,2.552c-0.083,0.823,0,2.963,0.329,4.031
		c0.329,1.071,1.317,3.127,1.811,4.363c0.493,1.233,0.658,2.222,0.658,2.222s-0.411,0.493-0.741,0.985
		c-0.329,0.496-1.646,1.564-1.646,1.564l-0.411,0.495c0,0,0.411,0.987,0.411,1.315s0.329,1.07,0.329,1.07s-0.576,0.164,0.823,0.164
		c1.4,0,2.716,0,4.032,0.33c1.317,0.328,3.375,0.823,3.622,1.399c0.247,0.576,0.576,1.397,0.576,1.397s-3.044,1.481-3.95,1.81
		c-0.905,0.33-2.469,0.74-3.538,0.906c-1.07,0.164-8.476-0.494-9.134-0.742c-0.658-0.246-1.069-1.067-1.069-1.067
		s-0.247-0.988-0.083-1.647c0.036-0.145,0.604,0.054,0.604-0.522s-0.174-1.259-0.174-1.259s-0.759,0.054-1.171-0.192
		c-0.411-0.246-2.304-11.028-2.304-11.028s-3.621,4.775-4.69,6.091s-3.95,3.619-4.855,4.443c-0.906,0.823-13.742-4.443-15.882-5.679
		c-2.14-1.234-9.051-8.227-9.874-9.051C26.081,125.468,26.739,122.836,26.739,122.836z"/>
	<path display="none" fill-rule="evenodd" clip-rule="evenodd" fill="#007CB7" d="M163.369,109.891l2.077-9.887l1.433-2.865
		l1.075-2.579l1.217-0.645h1.22l0.571-0.216c0,0,0-0.572,0.431-1.074s0.788-0.359,0.933-0.788c0.143-0.431,0.645-0.288,0.5-1.075
		c-0.143-0.79,0.071-1.147-0.288-1.504c-0.356-0.359-0.856-0.788-1.358-1.506c-0.502-0.716-0.431-2.506-0.431-3.008
		s0.431-2.938,0.858-4.155c0.431-1.22,1.792-2.795,2.58-3.224c0.787-0.431,2.15-1.22,3.868-1.146
		c1.719,0.071,2.723-0.286,4.442,0.286c1.721,0.573,3.223,1.72,4.227,2.722c1.004,1.004,2.437,1.934,3.008,3.152
		c0.575,1.218,0.718,1.435,0.502,2.365c-0.215,0.93,0.143,1.29-0.571,2.22c-0.719,0.93-1.147,1.29-1.578,1.361
		c-0.43,0.071-0.285,0.357-0.285,0.357s-0.288,0.933-0.214,1.723c0.069,0.788,0.143,0.788-0.217,1.145s-0.571,0.79-0.931,1.075
		s-0.502-0.073-0.787,0.645c-0.288,0.715,0.143,1.359-0.074,2.221c-0.214,0.861,0.288,1.073-0.645,1.575
		c-0.931,0.502-1.216,0.575-2.148,0.431c-0.931-0.143-1.361-0.143-1.933-0.071c-0.575,0.071-0.575,0-0.575,0
		s-0.286,0.716-0.357,1.506c-0.071,0.788,0,1.718,0,1.718s0.071,0.286,0.573,0.645c0.502,0.359,1.073,0.43,1.504,0.717
		s0.859,0.645,1.002,1.002c0.143,0.359,0.502,0.502,0.933,2.15c0.431,1.646,0.5,2.148,0.859,4.084
		c0.359,1.934,0.359,3.01,1.004,3.866c0.645,0.861,1.433,1.506,1.433,1.506s1.36-0.573,1.791-0.788
		c0.429-0.216,1.29-1.074,2.004-1.648c0.719-0.571,1.363-1.359,1.723-1.791c0.357-0.429,0.5-0.429,0.5-0.429l0.502,0.216
		c0,0,0.071-1.22-0.071-1.865c-0.144-0.645-0.431-0.502-0.502-1.216c-0.071-0.718-0.359-1.648,0.285-1.792
		c0.645-0.143,1.219-0.358,1.863-0.358s1.577,0,1.577,0l0.502,0.143l2.648-5.729c0,0,0.359-0.143,0.502-0.072
		c0.144,0.072,0.861,0.5,0.861,0.5l0.213,0.432l-1.502,3.654c0,0,0.143,0.143,0.214,0.502c0.071,0.357,0.143,0.285-0.071,0.787
		c-0.217,0.502-0.645,1.074-0.502,1.359c0.143,0.287,0.645,0.217,0.787,0.789c0.144,0.574-0.358,0.859-0.071,1.002
		c0.288,0.144,0.502,0.359,0.502,0.788c0,0.433,0.144,0.933,0,1.29c-0.145,0.359-0.789,1.363-1.146,1.791
		c-0.357,0.431-1.361,0.931-1.361,0.931l-0.285,0.502c0,0,0.429,0.073,0.429,0.359s0,0.645,0,0.645s-2.221,1.792-2.723,2.294
		s-3.652,3.15-4.942,3.938c-1.289,0.787-2.795,1.577-3.224,1.791c-0.431,0.217-1.433,0.073-2.077,0.143
		c-0.646,0.074-2.294-0.645-2.294-0.645l-0.859-0.143l0.144,2.865c0,0,0.43-0.069,0.858,0.216c0.431,0.286,0.359,0.502,1.29,0.717
		c0.931,0.214,1.289,0.43,2.796,0.499c1.501,0.074,8.309,0.217,10.101,0.503c1.791,0.287,5.016,0.932,6.374,1.432
		c1.363,0.502,3.153,1.578,3.512,2.151c0.357,0.573,1.361,1.146,1.361,3.081s-0.787,8.31-1.648,10.387
		c-0.859,2.077-4.371,9.958-5.085,11.892c-0.719,1.935-1.004,4.73-1.075,5.088c-0.072,0.356-0.574,0.287-0.646,0.933
		c-0.071,0.645,0.502,0.428,0.573,1.073c0.072,0.645,0.788,1.433,0.215,1.862c-0.573,0.431-0.5,0.859-1.145,0.788
		c-0.646-0.071-2.008,0.145-2.008,0.145l-0.144,1.073l0.646,0.286c0,0,0,0.359,0.573,0.718c0.573,0.357,1.002,0.788,2.579,1.146
		c1.577,0.356,3.224,0.716,4.226,1.075c1.004,0.359,2.008,0.502,2.653,0.931c0.645,0.431,1.145,1.363,1.216,1.72
		c0.073,0.357,0.431,0.573,0.073,1.219c-0.359,0.645-0.575,0.716-1.004,0.787c-0.431,0.071-11.321,0.359-11.321,0.359h-10.745
		c0,0-0.502-0.217-0.859-0.502c-0.356-0.286-0.933-0.788-0.933-1.792s0.074-1.935,0.146-2.864c0.071-0.933,0.573-2.008,0.573-2.008
		l0.429-0.213c0,0,0.502-0.575,0.575-1.289c0.069-0.719,0.143-1.221,0.143-1.221l-1.075-0.214c0,0-0.214,0-0.214-0.5
		c0-0.502,1.216-6.736,1.216-6.736s2.15-8.237,2.294-8.811c0.143-0.574,1.432-4.871,1.432-4.871l-8.597,0.212
		c0,0-3.94,0.146-5.803-0.356c-1.863-0.5-1.863-0.574-3.079-1.504c-1.221-0.931-2.723-2.58-3.367-4.012
		c-0.646-1.433-0.431-2.723-0.431-2.723l0.573-0.143l-0.645-0.431c0,0-0.144-1.219-0.144-2.006c0-0.788-0.502-3.869-0.575-5.732
		C168.456,125.364,163.369,109.891,163.369,109.891z"/>
	<path fill-rule="evenodd" clip-rule="evenodd" fill="#FFFFFF" d="M190.985,177.5c0.406-1.781,0.587-1.951,0.587-1.951l0.36,0.045
		c0,0,0.912-1.672,1.553-3.594c0.141-0.391,0.094-0.313,0.094-0.313l-3.188-1.406c0,0,0.381-1.24,0.687-1.723
		c0.388-0.612,0.844-1.369,0.97-2.684c0.371-3.88,2.658-10.722,2.688-13.188c0.048-3.955-3.879-5.355-3.879-5.355l-0.101-2.543
		l-1.803-0.033c0,0-0.98-0.355-2.348-0.552c-1.369-0.195-4.203,0.635-4.203,0.635l-8.892,0.05l-3.957-0.438
		c0,0-0.439-0.246-0.587-0.539c-0.146-0.294-0.635-0.83-0.732-1.174c-0.098-0.341,0.098-0.83,0.098-0.83l-0.587-0.146
		c0,0-0.146-0.195-0.782-0.195c-0.635,0-0.878-0.099-0.878-0.099s-0.148-0.047-0.148-0.682c0-0.637-0.243-13.097-0.291-15.979
		c-0.05-2.882,0.683-19.003,0.926-21.496c0.246-2.493,1.271-4.64,2.004-5.665c0.735-1.026,2.298-2.543,2.834-3.03
		c0.539-0.489,2.052-1.612,2.591-2.052c0.439-0.147,1.66-0.83,1.66-0.83s0.294-0.296,0.294-0.587c0-0.295,0-0.634,0-0.634
		s-0.146,0.291-0.441-0.883c-0.291-1.171-0.291-3.759-0.243-4.885c0.048-1.122,1.174-4.786,1.465-5.42
		c0.295-0.637,1.662-2.248,2.151-2.689c0.486-0.441,2.733-1.367,3.272-1.563c0.537-0.195,2.784-0.685,3.763-0.539
		c0.976,0.148,3.37,1.026,4.153,1.517c0.782,0.487,2.442,2.248,3.225,3.564c0.78,1.321,1.121,3.764,1.172,4.74
		c0.05,0.976-0.098,3.469-0.246,3.86c-0.146,0.389-0.587,1.171-0.587,1.171s-0.438,0.196-0.584,0.587s-0.342,0.391-0.342,0.391
		l-0.491,0.148l-0.486,0.389c0,0-0.195,0.587-0.243,0.833c-0.051,0.244-0.441,0.244-0.441,0.244v0.782c0,0-0.243,1.66-0.243,1.952
		c0,0.296-0.587,0.296-0.587,0.296h-0.342h-0.88l-0.341,0.341c0,0,0.181,0.518,0,0.685c-0.184,0.162-0.196-0.012-0.392,0.246
		c-0.038,0.05-0.005,0.303-0.188,0.486s-0.599,0.035-0.794,0.184c-0.196,0.146-0.368,0.207-0.406,0.463
		c-0.033,0.258-0.429,0.759-1.135,0.645c-0.702-0.119-1.091-0.236-1.091-0.236l-0.217,1.025l0.353,1.174
		c0,0,1.172,1.291,1.522,1.875c0.353,0.587,0.47,1.758,0.587,2.814c0.119,1.055,0.939,4.34,0.939,5.395s1.172,5.157,1.172,5.157
		h1.758l0.706-0.585c0,0,0.585-0.938,1.055-1.877c0.468-0.938,1.171-0.82,1.758-1.408c0.585-0.584,2.111-0.467,2.813-0.467
		c0.706,0,2.229,0,2.229,0l2.698-0.234l5.394-4.574c0,0,1.174-1.055,1.761-1.055c0.584,0,1.171-0.117,1.641,0.119
		c0.468,0.233,0.701,0.467,0.701,1.171s0,1.171,0,1.171l-5.04,4.34c0,0-0.351,0.703-0.117,1.057
		c0.233,0.351,0.117,1.055-0.119,1.758c-0.234,0.704-0.701,0.704-1.407,1.524c-0.702,0.821-1.756,1.522-2.813,1.995
		c-1.058,0.467-1.759,0.351-1.759,0.351s-0.119,2.462-0.587,3.399c-0.467,0.939-1.76,1.524-2.814,1.875
		c-1.055,0.353-2.343,0-2.343,0l-3.049,0.47l-0.939,0.704l0.233,3.752c0,0-0.233,0.47,1.057,0.704c1.291,0.233,2.813,0,4.573,0.116
		c1.758,0.117,7.855,0.471,9.146,0.704c1.288,0.233,3.869,0.587,5.157,1.524c1.291,0.938,1.994,2.813,2.815,3.986
		c0.82,1.174,0.938,2.228,1.054,3.636c0.119,1.407-0.351,2.578-0.82,4.103c-0.468,1.524-0.587,2.696-1.174,4.573
		c-0.584,1.878-1.171,3.753-1.875,5.747c-0.701,1.991-1.994,6.682-2.695,9.38c-0.704,2.695-2.923,10.448-3.049,11.021
		s-0.035,0.857-0.235,1.135c-0.922-0.594-3.25-1.109-3.25-1.109s-0.391,0.797-0.484,1.297s0.313,0.75,0.313,0.75l2.027,0.669
		l0.087-0.14c0,0,2.778,1.091,3.948,1.471s1.844,0.641,2.906,1.125s1.922,1.125,2.297,1.609s0.359,1,0.219,1.328
		s-1.214,0.618-2.316,0.778s-6.918,0.351-7.973,0.351c-0.458,0-5.57-0.816-5.57-0.816l-0.252,0.458l-6.108-0.377
		c0,0-0.077-0.097-0.015-1.675S190.579,179.281,190.985,177.5z"/>
	<path fill-rule="evenodd" clip-rule="evenodd" fill="#007CB7" d="M203.61,233.75"/>
</g>
</svg>
