<?xml version="1.0" encoding="utf-8"?>
<!-- Generator: Adobe Illustrator 15.0.0, SVG Export Plug-In . SVG Version: 6.00 Build 0)  -->
<!DOCTYPE svg PUBLIC "-//W3C//DTD SVG 1.1//EN" "http://www.w3.org/Graphics/SVG/1.1/DTD/svg11.dtd">
<svg version="1.1" xmlns="http://www.w3.org/2000/svg" xmlns:xlink="http://www.w3.org/1999/xlink" x="0px" y="0px"
	 width="852.389px" height="221px" viewBox="0 0 852.389 221" enable-background="new 0 0 852.389 221" xml:space="preserve">
<g id="argillearn">
	<g>
		<path fill="#B5AEA6" d="M100.979,47.644c-4.08-18.7-19.55-29.409-37.229-29.409c-32.13,0-45.729,26.859-45.729,53.379
			s13.6,53.38,45.729,53.38c22.439,0,36.719-17.34,38.929-38.93h11.56c-3.23,29.749-22.1,48.789-50.489,48.789
			c-38.25,0-57.29-30.09-57.29-63.239S25.5,8.374,63.75,8.374c22.95,0,45.729,13.771,48.789,39.27H100.979z"/>
		<path fill="#B5AEA6" d="M125.119,44.584h11.39l28.899,74.799l27.03-74.799h10.71l-38.08,101.148
			c-6.12,14.79-9.69,19.04-23.12,19.04c-4.25-0.17-6.46-0.17-8.16-0.85v-9.011c2.55,0.511,4.93,0.851,7.31,0.851
			c9.52,0,11.73-5.61,15.3-13.771l3.74-10.029L125.119,44.584z"/>
		<path fill="#B5AEA6" d="M218.789,10.924h10.71v50.319h0.34c4.59-12.579,17.34-19.21,30.43-19.21
			c26.689,0,39.439,21.59,39.439,46.41c0,24.819-12.75,46.409-39.439,46.409c-14.11,0-26.35-7.31-31.28-19.21h-0.34v16.66h-9.859
			V10.924z M260.269,51.044c-22.78,0-30.77,19.209-30.77,37.399c0,18.189,7.989,37.399,30.77,37.399
			c20.399,0,28.729-19.21,28.729-37.399C288.998,70.253,280.668,51.044,260.269,51.044z"/>
		<path fill="#B5AEA6" d="M327.757,91.333c0.17,15.64,8.329,34.51,28.899,34.51c15.64,0,24.14-9.18,27.54-22.439h10.709
			c-4.59,19.89-16.149,31.449-38.249,31.449c-27.88,0-39.609-21.42-39.609-46.409c0-23.12,11.729-46.41,39.609-46.41
			c28.22,0,39.439,24.65,38.59,49.3H327.757z M384.536,82.323c-0.511-16.149-10.54-31.279-27.88-31.279
			c-17.51,0-27.2,15.3-28.899,31.279H384.536z"/>
		<path fill="#B5AEA6" d="M414.797,44.584h9.859v20.569h0.34c5.44-14.109,17.34-22.439,33.15-21.76v10.71
			c-19.38-1.02-32.64,13.26-32.64,31.45v46.749h-10.71V44.584z"/>
	</g>
	<g>
		<path fill="#0077B4" d="M475.37,10.924h10.71v121.379h-10.71V10.924z"/>
		<path fill="#0077B4" d="M518.04,91.333c0.17,15.64,8.33,34.51,28.9,34.51c15.639,0,24.139-9.18,27.539-22.439h10.71
			c-4.59,19.89-16.149,31.449-38.249,31.449c-27.881,0-39.61-21.42-39.61-46.409c0-23.12,11.729-46.41,39.61-46.41
			c28.219,0,39.439,24.65,38.589,49.3H518.04z M574.819,82.323c-0.51-16.149-10.539-31.279-27.879-31.279
			c-17.51,0-27.2,15.3-28.9,31.279H574.819z"/>
		<path fill="#0077B4" d="M604.06,71.443c1.02-20.569,15.471-29.41,35.529-29.41c15.471,0,32.301,4.76,32.301,28.22v46.58
			c0,4.08,2.039,6.46,6.289,6.46c1.189,0,2.551-0.34,3.4-0.68v9.01c-2.381,0.51-4.08,0.68-6.971,0.68
			c-10.879,0-12.58-6.12-12.58-15.3h-0.34c-7.479,11.39-15.129,17.85-31.959,17.85c-16.15,0-29.41-7.989-29.41-25.67
			c0-24.649,23.971-25.499,47.09-28.22c8.84-1.02,13.77-2.21,13.77-11.899c0-14.45-10.369-18.02-22.949-18.02
			c-13.26,0-23.119,6.119-23.46,20.399H604.06z M661.179,84.363h-0.34c-1.359,2.55-6.119,3.4-9.01,3.91
			c-18.189,3.229-40.799,3.06-40.799,20.229c0,10.71,9.52,17.34,19.549,17.34c16.32,0,30.77-10.37,30.6-27.54V84.363z"/>
		<path fill="#0077B4" d="M698.409,44.584h9.859v20.569h0.34c5.441-14.109,17.34-22.439,33.15-21.76v10.71
			c-19.379-1.02-32.639,13.26-32.639,31.45v46.749h-10.711V44.584z"/>
		<path fill="#0077B4" d="M759.946,44.584h10.711v15.13h0.34c3.908-10.54,15.639-17.681,28.049-17.681
			c24.65,0,32.129,12.92,32.129,33.83v56.439h-10.709V77.563c0-15.13-4.93-26.52-22.27-26.52c-17,0-27.199,12.92-27.539,30.089
			v51.17h-10.711V44.584z"/>
	</g>
</g>
<g id="hes_so">
	<g>
		<path fill="#B5AEA6" d="M149.954,198.9c2.43,0.743,7.952,2.516,7.952,8.576c0,2.287-0.91,4.856-3.399,6.746
			c-3.217,2.574-7.525,2.745-9.711,2.745c-3.277,0-6.007-0.574-8.313-1.431c-0.305-0.112-0.608-0.226-0.912-0.343l-0.303-0.516
			c0.243-2.231,0.243-2.515,0.363-4.803l0.607-0.169c1.091,0.8,3.763,2.74,8.437,2.74c4.795,0,6.554-2.515,6.554-4.284
			c0-2.629-2.607-3.489-6.312-4.633l-1.941-0.629c-2.49-0.743-7.952-2.4-7.952-8.287c0-5.891,5.462-8.806,12.26-8.806
			c4.492,0,7.646,1.201,8.74,1.601l0.306,0.401c-0.245,2.114-0.306,2.344-0.49,4.515l-0.544,0.229
			c-1.517-0.914-3.884-2.287-7.829-2.287c-0.85,0-1.7,0.058-2.609,0.286c-1.822,0.458-3.339,1.657-3.339,3.431
			c0,2.46,2.488,3.201,6.254,4.287L149.954,198.9z"/>
		<path fill="#B5AEA6" d="M186.431,201.186c0.062,1.201,0,5.033-1.398,7.606c-1.757,3.145-4.67,3.827-6.916,3.827
			c-1.216,0-2.49-0.229-3.583-0.74c-4.794-2.287-4.854-8.062-4.854-10.348c0-2.4,0.184-5.718,1.822-8.062
			c2.125-3.202,5.522-3.315,6.676-3.315c3.399,0,5.34,1.486,6.493,3.257C186.189,195.928,186.431,199.758,186.431,201.186z
			 M193.047,200.957c-0.123-4-0.91-8.003-3.701-11.032c-2.672-2.859-6.738-4.116-10.864-4.116c-6.071,0-9.589,2.344-11.291,4.003
			c-4.065,3.829-4.187,9.433-4.187,11.604c0,1.889,0.063,7.717,4.187,11.662c1.941,1.888,5.402,3.833,10.863,3.833
			c4.25,0,7.831-0.974,10.502-3.492c2.003-1.886,3.275-4.115,3.942-6.915C192.925,204.791,193.047,202.901,193.047,200.957z"/>
		<path fill="#B5AEA6" d="M128.102,201.43c0,1.991-1.616,3.609-3.612,3.609c-1.995,0-3.611-1.618-3.611-3.609
			c0-1.997,1.616-3.615,3.611-3.615C126.485,197.814,128.102,199.433,128.102,201.43z"/>
	</g>
	<g>
		<path fill="#0077B4" d="M44.951,176.303c-0.061,4.4-0.123,7.088-0.123,11.091c0,9.604,0.182,19.151,0.668,28.756l-0.305,0.343
			c-5.158-0.058-6.372,0-10.924,0.171l-0.302-0.342c0.302-8.062,0.302-9.946,0.18-17.665c-2.427-0.056-4.854-0.115-7.282-0.115
			c-2.365,0-4.613,0.06-7.281,0.173c0.06,8.287,0.118,10.346,0.484,17.436l-0.304,0.343c-5.339-0.058-6.433,0-10.865,0.171
			l-0.302-0.342c0.122-4.802,0.244-7.602,0.244-12.751c0-14.174-0.366-21.208-0.667-27.099l0.364-0.341c5.278,0,6.19,0,10.862-0.171
			l0.303,0.343l-0.118,15.091c2.124,0,4.306,0.059,6.43,0.059c2.734,0,5.402-0.059,8.073-0.114
			c-0.057-6.748-0.057-8.405-0.485-14.866l0.306-0.341c5.096,0,5.884,0,10.741-0.171L44.951,176.303z"/>
		<path fill="#0077B4" d="M61.75,197.797c0.182-1.773,0.607-4.174,2.916-5.543c0.728-0.459,1.579-0.629,2.427-0.629
			c2.003,0,3.214,0.972,3.884,1.998c0.848,1.26,0.91,2.631,0.91,3.947L61.75,197.797z M80.142,208.031
			c-2.31,1.144-5.041,2.46-9.469,2.46c-3.641,0-6.13-1.088-7.588-3.147c-0.909-1.2-1.089-2.343-1.335-3.486l19.604-0.343
			l0.364-0.399c-0.059-2.8-0.12-5.66-0.968-8.52c-2.128-6.746-6.8-8.118-8.863-8.574c-1.517-0.399-2.913-0.514-4.31-0.514
			c-9.528,0-15.84,5.886-15.84,15.779c0,2.686,0.486,5.485,1.456,7.487c3.521,7.718,11.776,8.403,16.145,8.403
			c5.039,0,7.223-0.856,10.438-2.057l0.367-0.459l0.424-6.459L80.142,208.031z"/>
		<path fill="#0077B4" d="M105.75,197.797c3.341,1.205,8.015,2.86,8.015,9.148c0,0.398,0,0.799-0.064,1.258
			c-1.091,8.174-10.195,8.975-14.807,8.975c-4.429,0-6.979-0.914-9.953-1.942l-0.302-0.515c0.241-2.857,0.302-3.485,0.424-6.461
			l0.545-0.229c0.908,0.688,1.396,1.086,2.429,1.603c2.244,1.083,4.733,1.602,6.433,1.602c3.397,0,4.794-1.545,4.794-2.976
			c0-2.058-2.674-2.915-4.309-3.428l-2.309-0.802c-2.851-1.03-7.888-2.86-7.888-8.976c0-2.289,0.85-4.002,1.637-5.03
			c3.156-4.29,9.105-4.517,12.077-4.517c3.946,0,6.436,0.684,9.285,1.429l0.305,0.34l-0.605,6.233l-0.548,0.172
			c-1.516-0.916-3.884-2.4-7.585-2.4c-3.765,0-4.249,1.886-4.249,2.572c0,1.602,1.638,2.228,3.703,2.914L105.75,197.797z"/>
	</g>
</g>
<g id="centre_elearning">
	<g>
		<path fill="#807C7B" d="M204.226,205.938v-2.53h10.902v2.53H204.226z"/>
		<path fill="#807C7B" d="M254.548,194.948c-1.047-4.797-5.015-7.544-9.551-7.544c-8.242,0-11.731,6.89-11.731,13.693
			c0,6.803,3.489,13.693,11.731,13.693c5.756,0,9.42-4.448,9.987-9.986h2.965c-0.829,7.631-5.669,12.516-12.952,12.516
			c-9.812,0-14.696-7.719-14.696-16.223s4.884-16.223,14.696-16.223c5.887,0,11.731,3.532,12.516,10.073H254.548z"/>
		<path fill="#807C7B" d="M273.383,185.528h21.5v2.53h-18.534v11.251h17.356v2.529h-17.356v12.298h18.752v2.529h-21.718V185.528z"/>
		<path fill="#807C7B" d="M310.099,185.528h3.313l18.142,26.341h0.088v-26.341h2.965v31.138h-3.313l-18.142-26.34h-0.088v26.34
			h-2.965V185.528z"/>
		<path fill="#807C7B" d="M348.384,185.528h24.683v2.53h-10.858v28.607h-2.966v-28.607h-10.858V185.528z"/>
		<path fill="#807C7B" d="M386.887,185.528h14.261c5.146,0,9.463,2.486,9.463,8.112c0,3.925-2.05,7.151-6.062,7.937v0.087
			c4.056,0.523,5.233,3.314,5.451,7.021c0.131,2.137,0.131,6.41,1.439,7.98h-3.271c-0.742-1.221-0.742-3.532-0.829-4.841
			c-0.262-4.36-0.61-9.201-6.236-8.983h-11.251v13.824h-2.966V185.528z M389.853,200.313h11.077c3.619,0,6.716-2.268,6.716-6.062
			s-2.268-6.192-6.716-6.192h-11.077V200.313z"/>
		<path fill="#807C7B" d="M426.872,185.528h21.5v2.53h-18.534v11.251h17.356v2.529h-17.356v12.298h18.752v2.529h-21.718V185.528z"/>
		<path fill="#807C7B" d="M486.654,185.528h21.5v2.53H489.62v11.251h17.356v2.529H489.62v12.298h18.752v2.529h-21.718V185.528z"/>
		<path fill="#807C7B" d="M522.889,205.938v-2.53h10.902v2.53H522.889z"/>
		<path fill="#807C7B" d="M550.447,185.528h2.966v28.608h17.443v2.529h-20.409V185.528z"/>
		<path fill="#807C7B" d="M584.764,185.528h21.5v2.53h-18.534v11.251h17.356v2.529h-17.356v12.298h18.752v2.529h-21.718V185.528z"/>
		<path fill="#807C7B" d="M630.637,185.528h3.314l12.211,31.138h-3.184l-3.794-9.682h-14.173l-3.751,9.682h-3.184L630.637,185.528z
			 M625.928,204.455h12.254l-6.019-15.961L625.928,204.455z"/>
		<path fill="#807C7B" d="M659.895,185.528h14.261c5.146,0,9.463,2.486,9.463,8.112c0,3.925-2.05,7.151-6.062,7.937v0.087
			c4.056,0.523,5.233,3.314,5.451,7.021c0.131,2.137,0.131,6.41,1.439,7.98h-3.271c-0.742-1.221-0.742-3.532-0.829-4.841
			c-0.262-4.36-0.61-9.201-6.236-8.983H662.86v13.824h-2.966V185.528z M662.86,200.313h11.077c3.619,0,6.716-2.268,6.716-6.062
			s-2.268-6.192-6.716-6.192H662.86V200.313z"/>
		<path fill="#807C7B" d="M699.837,185.528h3.313l18.142,26.341h0.088v-26.341h2.965v31.138h-3.313l-18.142-26.34h-0.088v26.34
			h-2.965V185.528z"/>
		<path fill="#807C7B" d="M741.698,185.528h2.965v31.138h-2.965V185.528z"/>
		<path fill="#807C7B" d="M762.018,185.528h3.313l18.142,26.341h0.088v-26.341h2.965v31.138h-3.313l-18.142-26.34h-0.088v26.34
			h-2.965V185.528z"/>
		<path fill="#807C7B" d="M830.263,216.666h-2.138l-0.392-5.669h-0.088c-2.093,4.448-6.279,6.323-10.771,6.323
			c-9.813,0-14.696-7.719-14.696-16.223s4.884-16.223,14.696-16.223c6.542,0,11.862,3.532,12.996,10.335h-2.966
			c-0.393-3.576-4.1-7.806-10.03-7.806c-8.242,0-11.73,6.89-11.73,13.693c0,6.803,3.488,13.693,11.73,13.693
			c6.891,0,10.902-4.841,10.771-11.426h-10.597v-2.529h13.214V216.666z"/>
	</g>
</g>
</svg>
