<?xml version="1.0" encoding="UTF-8"?>
<svg id="Calque_1" data-name="Calque 1" xmlns="http://www.w3.org/2000/svg" version="1.1" viewBox="0 0 204 204">
  <defs>
    <style>
      .cls-1 {
        fill: #fff;
        stroke-width: 0px;
      }
    </style>
  </defs>
  <path id="t4" class="cls-1" d="M58.4,105.1c-3.8,0-4.9.7-4.9,3.1s1.3,3.5,5.4,3.5,20.9-.9,20.8,10.1c.2,12.2-6.9,15.2-6.9,15.2,0,0-4.1-3.8-7.1-4.9-2.9-1.2-4.7-1.5-8.1-1.6-3.4,0-3.9,1.5-3.9,3.4s.6,3.5,3.4,3.5,8.7.9,12.2,5.6,3.9,10.9,3.9,13.5,1.4,3.4,3.2,3.4,3-.7,3-3.2.3-4.2-.5-7.6-2.4-6.5-2.4-6.5c0,0,9.6-4.9,9.6-20.8s-16.6-16.6-28.1-16.6Z"/>
  <path id="t3" class="cls-1" d="M73.3,78c.5-1.1.5-2.6-.4-3.8-.9-1.2-3.2-1.6-4.5-.5-1.3,1.1-2.2,2.7-6.2,4.7-4.1,2.1-7.7,1.7-7.7,1.7,0,0,.9-5.4-1.5-11.2s-9.2-7.6-11.1-8.1c-1.9-.5-3.5.4-4,2.2-.4,1.7.4,3.5,2.3,4.1,1.9.6,10.1,3.3,6.1,14.6-4,11.3-15.6,7.8-17.6,7.8s-3.5,1-3.5,2.8.9,3,2.2,3.5,7.4,1.7,14.1-.5c6.6-2.2,9.8-8.4,9.8-8.4,0,0,7.9-.2,12.4-1.9,4.6-1.7,9.1-5.9,9.6-7Z"/>
  <path id="t2" class="cls-1" d="M76.4,58.6s5.1-3.6,7.3-7.6c2.2-4,2.6-8.2,2.7-9.6,0-1.4-1.5-3.6-3.4-3.5-1.9,0-2.8,1-3.3,2.7-.4,1.6-.9,8.8-6.1,11.7s-10.3,2.2-13.6,1.4c-3.4-.9-8.3-4.2-9.5-5.2s-3.3-1.4-4.7-.2c-1.4,1.2-1.4,2.3-1,3.7s5.6,5.2,10.1,6.7,12.5,1.7,12.5,1.7c0,0,12.8,5.7,12.5,15.7-.3,10-11.9,15.1-11.9,15.1-2.9,1.7-2.9,1-3.7,2.2s-1,2.8-.2,4c.9,1.2,2.1,1.3,3.4,1.1,1.3-.2,7.7-3.4,11.7-7.3,4.1-4,7.3-7.9,7.3-14.8s-2.4-9.3-4.5-12.3c-2.1-2.9-5.6-5.7-5.6-5.7Z"/>
  <path id="t1" class="cls-1" d="M168.6,105.4c1.5,5.8,6.7,10.1,12.9,10.1s13.3-6,13.3-13.3-6-13.3-13.3-13.3-11.4,4.3-12.9,10h-70v-12.5h57.7v-25.2h17.2c1.1,1.7,3,2.9,5.2,2.9,3.4,0,6.1-2.7,6.1-6.1s-2.7-6.1-6.1-6.1-3.9,1.1-5,2.7h-23.9s0,25.2,0,25.2h-51.1v-12.5h38.7v-28.6h16.9c1.1,1.7,3,2.8,5.1,2.8,3.4,0,6.1-2.7,6.1-6.1s-2.7-6.1-6.1-6.1-4,1.1-5.1,2.7h-23.6s0,28.6,0,28.6h-32.1v-12.3h19.5V16.1s7.4,0,7.4,0c1.1,1.7,3,2.8,5.1,2.8,3.4,0,6.1-2.7,6.1-6.1s-2.7-6.1-6.1-6.1-4,1.1-5.1,2.8h-14.1v32.1h-12.9v-20.6c0-6.8-5-14.9-18-14.9s-15.8,9.3-15.8,9.3c0,0-8.5-.7-13.1,2.8s-7.3,10.8-7.3,10.8c0,0-5.2,1-8.8,5.5s-3.9,10.5-3.9,10.5c0,0-2.9.5-4.7,2-1.7,1.5-5.1,6.5-5.1,13.1s2.2,11.1,2.2,11.1c0,0-5.9,3.2-9.1,7-3.2,3.8-5.7,11.1-5.7,16.6s.5,10.1,4.3,15.4c3.8,5.4,10,8.4,10,8.4,0,0-.9,1.1-1.9,3-1,2-2.9,6-2.9,11.6s2.4,10.7,4.8,12.9c2.4,2.2,7.3,3.5,7.3,3.5,0,0-1.5,2.9-1.9,4.4s-1.4,11.1,2.8,15.9c5.7,6.3,13.6,5.9,13.6,5.9,0,0,3.6,6,8.3,9.2,4.7,3.1,10.7,3.2,10.7,3.2,0,0,.6,3,2.6,5.5s4.9,4.2,12.5,4.2,12.2-1.8,16.1-6.3c4-4.5,2.7-9.9,2.7-9.9v-18.8h13.2v31.5h13.7c1.1,1.7,3,2.8,5.1,2.8,3.4,0,6.1-2.7,6.1-6.1s-2.7-6.1-6.1-6.1-4,1.1-5.1,2.8h-7.1v-31.5s-19.7,0-19.7,0c0,0,0-7.1,0-12.9h32.1v28.6h23.6c1.1,1.8,3,3,5.2,3,3.4,0,6.1-2.7,6.1-6.1s-2.7-6.1-6.1-6.1-3.9,1-5,2.6h-17.3v-28.6s-38.7,0-38.7,0v-12.4h51.1v25.2h23.6c1.1,1.8,3,3,5.2,3,3.4,0,6.1-2.7,6.1-6.1s-2.7-6.1-6.1-6.1-3.9,1-5,2.6h-17.3v-25.2s-57.7,0-57.7,0v-12.5h70ZM181.6,95.8c3.5,0,6.3,2.8,6.3,6.3s-2.8,6.3-6.3,6.3-6.3-2.8-6.3-6.3,2.8-6.3,6.3-6.3ZM92.5,181.6c0,6.6-4.9,10-13.2,10s-9.3-6.7-9.3-9.5.9-3.5,1.4-4.8c.5-1.4,0-2.5-.6-3.6-.7-1.1-2.7-1.5-3.8-1.1-1.1.3-2,1-2.7,3.2s-.9,6.1-.9,6.1c0,0-3.3-.4-6.8-2.2-3.5-1.8-4-5.4-4-5.4,0,0,3.5-1.9,4.9-3.2,1.4-1.3,3.4-5.5,3.3-8.2,0-2.7-2.2-3.7-3.5-3.8-1.2,0-2.8,0-3,4.3s-7.3,5.9-9.9,5.9-9.5-2.2-9.5-8.5,2.3-9.7,4.1-10.7c1.8-1,5.2-.2,6.6-.3,1.4,0,2.3-1.2,2.3-3.1s-.8-2.9-3.1-3.3c-3.6-.4-6.4.4-8.1.7-1,0-3.2-.4-5.2-1.1-2-.7-6.4-2.9-6.4-10.4s5.3-11.5,5.3-11.5c0,0,4.7,0,7.1.4,2.4.5,5.4,2.4,6.6,2.7,1.1.3,2.7,0,3.3-1,.6-.9,1.1-1.9.3-3.6-.9-1.7-3.5-3.1-7.1-4-3.5-.9-9.2-.9-9.2-.9,0,0-15.4-3.9-15.4-19.3s12.8-18.8,12.8-18.8c0,0,5.3,3.1,6.5,2.9,1.2-.2,2.4-.3,2.9-1.6.5-1.3.3-2.4-.7-3.6-.9-1.2-1.6-.7-3.3-1.8-1.6-1.1-3.3-2.8-4.6-6.4-1.3-3.5-.8-11.4,1.3-13.9,2.1-2.5,7.3-1.7,7.3-1.7,0,0-1.3-6.2,2.4-11.7s10.4-3.9,10.4-3.9c0,0-1.3-7.3,3.2-10.7s9.2-2,9.2-2c0,0,0,1.4.3,2.8.2,1.5,1,5.2,2,6.1s2.9,1.6,3.8.9c.9-.7,3-1.7,2-3.7-1-2-1.2-3.1-1.4-6,0-1.4.5-4.8,2.6-7.1,2.1-2.2,4.9-3.1,8-3.1s7.3,1.3,9.6,3.9c2.2,2.6,2.2,6.7,2.2,6.7,0,0,0,152.1,0,158.7Z"/>
</svg>