<?xml version="1.0" encoding="utf-8"?>
<!-- Generator: Adobe Illustrator 26.4.1, SVG Export Plug-In . SVG Version: 6.00 Build 0)  -->
<svg version="1.1" id="Logos" xmlns="http://www.w3.org/2000/svg" xmlns:xlink="http://www.w3.org/1999/xlink" x="0px" y="0px"
	 viewBox="0 0 177.7 78.9" style="enable-background:new 0 0 177.7 78.9;" xml:space="preserve">
<style type="text/css">
	.st0{clip-path:url(#SVGID_00000177442522204634797010000005838078495596359858_);fill:#B5AEA6;}
	.st1{clip-path:url(#SVGID_00000177442522204634797010000005838078495596359858_);fill:#00609C;}
	.st2{fill:#CAC5C1;}
</style>
<g>
	<g>
		<defs>
			<rect id="SVGID_00000008859069828937749230000006963966170079846021_" x="9.5" y="5.7" width="159.3" height="35.5"/>
		</defs>
		<clipPath id="SVGID_00000078012086592497311550000006767161129391690420_">
			<use xlink:href="#SVGID_00000008859069828937749230000006963966170079846021_"  style="overflow:visible;"/>
		</clipPath>
		<path style="clip-path:url(#SVGID_00000078012086592497311550000006767161129391690420_);fill:#B5AEA6;" d="M131.6,25.4
			c2.1,0.6,6.8,2.2,6.8,7.4c0,2-0.8,4.2-2.9,5.8c-2.8,2.2-6.5,2.4-8.4,2.4c-2.8,0-5.2-0.5-7.2-1.2c-0.3-0.1-0.5-0.2-0.8-0.3
			l-0.3-0.4c0.2-1.9,0.2-2.2,0.3-4.1l0.5-0.1c0.9,0.7,3.2,2.4,7.3,2.4c4.1,0,5.6-2.2,5.6-3.7c0-2.3-2.2-3-5.4-4l-1.7-0.5
			c-2.1-0.6-6.8-2.1-6.8-7.1c0-5.1,4.7-7.6,10.6-7.6c3.9,0,6.6,1,7.5,1.4l0.3,0.3c-0.2,1.8-0.3,2-0.4,3.9l-0.5,0.2
			c-1.3-0.8-3.3-2-6.7-2c-0.7,0-1.5,0-2.2,0.2c-1.6,0.4-2.9,1.4-2.9,3c0,2.1,2.1,2.8,5.4,3.7L131.6,25.4z"/>
		<path style="clip-path:url(#SVGID_00000078012086592497311550000006767161129391690420_);fill:#B5AEA6;" d="M168.7,27.2
			c-0.1-3.4-0.8-6.9-3.2-9.5c-2.3-2.5-5.8-3.5-9.4-3.5c-5.2,0-8.3,2-9.7,3.4c-3.5,3.3-3.6,8.1-3.6,10c0,1.6,0.1,6.6,3.6,10
			c1.7,1.6,4.7,3.3,9.4,3.3c3.7,0,6.7-0.8,9-3c1.7-1.6,2.8-3.5,3.4-6C168.6,30.5,168.7,28.9,168.7,27.2 M163,27.4
			c0.1,1,0,4.3-1.2,6.6c-1.5,2.7-4,3.3-6,3.3c-1,0-2.1-0.2-3.1-0.6c-4.1-2-4.2-6.9-4.2-8.9c0-2.1,0.2-4.9,1.6-6.9
			c1.8-2.8,4.8-2.9,5.8-2.9c2.9,0,4.6,1.3,5.6,2.8C162.8,22.9,163,26.2,163,27.4"/>
		<path style="clip-path:url(#SVGID_00000078012086592497311550000006767161129391690420_);fill:#B5AEA6;" d="M112.8,27.6
			c0,1.7-1.4,3.1-3.1,3.1c-1.7,0-3.1-1.4-3.1-3.1c0-1.7,1.4-3.1,3.1-3.1C111.4,24.5,112.8,25.9,112.8,27.6"/>
		<path style="clip-path:url(#SVGID_00000078012086592497311550000006767161129391690420_);fill:#00609C;" d="M41.1,6
			c-0.1,3.8-0.1,6.1-0.1,9.6c0,8.3,0.2,16.5,0.6,24.8l-0.3,0.3c-4.4,0-5.5,0-9.4,0.1l-0.3-0.3c0.3-6.9,0.3-8.6,0.2-15.2
			c-2.1,0-4.2-0.1-6.3-0.1c-2,0-4,0-6.3,0.1c0.1,7.1,0.1,8.9,0.4,15l-0.3,0.3c-4.6,0-5.5,0-9.4,0.1l-0.3-0.3c0.1-4.1,0.2-6.5,0.2-11
			c0-12.2-0.3-18.3-0.6-23.3l0.3-0.3c4.5,0,5.3,0,9.4-0.1L19.4,6l-0.1,13c1.8,0,3.7,0,5.5,0c2.4,0,4.7,0,7-0.1
			c-0.1-5.8-0.1-7.2-0.4-12.8l0.3-0.3c4.4,0,5.1,0,9.3-0.1L41.1,6z"/>
		<path style="clip-path:url(#SVGID_00000078012086592497311550000006767161129391690420_);fill:#00609C;" d="M71.4,33.3
			c-2,1-4.3,2.1-8.2,2.1c-3.1,0-5.3-0.9-6.5-2.7c-0.8-1-0.9-2-1.1-3l16.9-0.3l0.3-0.3c-0.1-2.4-0.1-4.9-0.8-7.3
			c-1.8-5.8-5.9-7-7.6-7.4c-1.3-0.3-2.5-0.4-3.7-0.4C52.4,13.9,47,19,47,27.5c0,2.3,0.4,4.7,1.3,6.5c3,6.6,10.1,7.2,13.9,7.2
			c4.3,0,6.2-0.7,9-1.8l0.3-0.4l0.4-5.6L71.4,33.3z M55.6,24.5c0.2-1.5,0.5-3.6,2.5-4.8c0.6-0.4,1.4-0.5,2.1-0.5
			c1.7,0,2.8,0.8,3.3,1.7c0.7,1.1,0.8,2.3,0.8,3.4L55.6,24.5z"/>
		<path style="clip-path:url(#SVGID_00000078012086592497311550000006767161129391690420_);fill:#00609C;" d="M93.5,24.5
			c2.9,1,6.9,2.5,6.9,7.9c0,0.3,0,0.7-0.1,1.1c-0.9,7-8.8,7.7-12.8,7.7c-3.8,0-6-0.8-8.6-1.7L78.8,39c0.2-2.5,0.3-3,0.4-5.6l0.5-0.2
			c0.8,0.6,1.2,0.9,2.1,1.4c1.9,0.9,4.1,1.4,5.5,1.4c2.9,0,4.1-1.3,4.1-2.6c0-1.8-2.3-2.5-3.7-3l-2-0.7c-2.5-0.9-6.8-2.5-6.8-7.7
			c0-2,0.7-3.4,1.4-4.3c2.7-3.7,7.8-3.9,10.4-3.9c3.4,0,5.5,0.6,8,1.2l0.3,0.3l-0.5,5.4L98,20.9c-1.3-0.8-3.3-2.1-6.5-2.1
			c-3.2,0-3.7,1.6-3.7,2.2c0,1.4,1.4,1.9,3.2,2.5L93.5,24.5z"/>
	</g>
</g>
<g>
	<path class="st2" d="M12.5,53.6h2l6,14v-14H23v21.1h-1.9L15,60.2v14.4h-2.5V53.6z"/>
	<path class="st2" d="M31.3,67.5v-14h2.8v14.1c0,2.7,0.3,4.9,2.8,4.9s2.8-2.2,2.8-4.9V53.6h2.8v14c0,4.4-1,7.3-5.6,7.3
		C32.3,74.9,31.3,71.9,31.3,67.5z"/>
	<path class="st2" d="M51.1,53.6H54l3.7,17.1l3.7-17.1h2.9l0.4,21.1h-2.4l-0.2-15.3l-3.6,15.3h-1.7l-3.5-15.3l-0.2,15.3h-2.4
		L51.1,53.6z"/>
	<path class="st2" d="M73.1,53.6h8.2v2.2h-5.2v7h4.2v2.1h-4.2v7.7h5.3v2.1h-8.2V53.6z M78.1,47.2h2.8L78,52.3h-1.4L78.1,47.2z"/>
	<path class="st2" d="M88.9,53.6h4.2c4.2,0,6.2,1.6,6.2,5.6c0,2.5-0.7,4.3-2.6,4.9l3,10.6h-2.8l-2.8-9.9h-2.3v9.9h-2.9V53.6z
		 M93,62.6c2.5,0,3.5-0.8,3.5-3.5c0-2.5-0.7-3.5-3.4-3.5h-1.3v7H93z"/>
	<path class="st2" d="M107.8,53.6h2.9v21.1h-2.9V53.6z"/>
	<path class="st2" d="M125.1,74.8c-0.2,0-0.3,0-0.5,0c-4.3,0-5.8-2.7-5.8-6.8v-8c0-4.2,1.5-6.7,5.8-6.7c4.2,0,5.8,2.5,5.8,6.7v8
		c0,3.1-0.9,5.4-3.1,6.3c0.6,0.8,1.4,1.8,2.1,2.2l-0.5,2.3C127.5,78.2,126.1,76.3,125.1,74.8z M127.4,68.7v-9.2
		c0-2.3-0.4-3.8-2.8-3.8c-2.4,0-2.8,1.4-2.8,3.8v9.2c0,2.3,0.4,3.9,2.8,3.9C127,72.5,127.4,71,127.4,68.7z"/>
	<path class="st2" d="M138.3,67.5v-14h2.8v14.1c0,2.7,0.3,4.9,2.8,4.9s2.8-2.2,2.8-4.9V53.6h2.8v14c0,4.4-1,7.3-5.6,7.3
		C139.4,74.9,138.3,71.9,138.3,67.5z"/>
	<path class="st2" d="M157.8,53.6h8.2v2.2h-5.2v7h4.2v2.1h-4.2v7.7h5.3v2.1h-8.2V53.6z"/>
</g>
</svg>
