<?xml version="1.0" encoding="utf-8"?>
<svg version="1.1" id="Logos" xmlns="http://www.w3.org/2000/svg" xmlns:xlink="http://www.w3.org/1999/xlink" x="0px" y="0px"
	 viewBox="0 0 166.5 49.5" style="enable-background:new 0 0 166.5 49.5;" >
<g>
	<path fill="#ffffff" d="M125.6,28.2
		c2.1,0.6,6.8,2.2,6.8,7.4c0,2-0.8,4.2-2.9,5.8c-2.8,2.2-6.5,2.4-8.4,2.4c-2.8,0-5.2-0.5-7.2-1.2c-0.3-0.1-0.5-0.2-0.8-0.3
		l-0.3-0.4c0.2-1.9,0.2-2.2,0.3-4.1l0.5-0.1c0.9,0.7,3.2,2.4,7.3,2.4c4.1,0,5.6-2.2,5.6-3.7c0-2.3-2.2-3-5.4-4l-1.7-0.5
		c-2.1-0.6-6.8-2.1-6.8-7.1c0-5.1,4.7-7.6,10.6-7.6c3.9,0,6.6,1,7.5,1.4l0.3,0.3c-0.2,1.8-0.3,2-0.4,3.9l-0.5,0.2
		c-1.3-0.8-3.3-2-6.7-2c-0.7,0-1.5,0-2.2,0.2c-1.6,0.4-2.9,1.4-2.9,3c0,2.1,2.1,2.8,5.4,3.7L125.6,28.2z"/>
	<path fill="#ffffff" d="M162.8,30
		c-0.1-3.4-0.8-6.9-3.2-9.5c-2.3-2.5-5.8-3.5-9.4-3.5c-5.2,0-8.3,2-9.7,3.4c-3.5,3.3-3.6,8.1-3.6,10c0,1.6,0.1,6.6,3.6,10
		c1.7,1.6,4.7,3.3,9.4,3.3c3.7,0,6.7-0.8,9-3c1.7-1.6,2.8-3.5,3.4-6C162.7,33.3,162.8,31.7,162.8,30 M157.1,30.2
		c0.1,1,0,4.3-1.2,6.6c-1.5,2.7-4,3.3-6,3.3c-1,0-2.1-0.2-3.1-0.6c-4.1-2-4.2-6.9-4.2-8.9c0-2.1,0.2-4.9,1.6-6.9
		c1.8-2.8,4.8-2.9,5.8-2.9c2.9,0,4.6,1.3,5.6,2.8C156.9,25.6,157.1,28.9,157.1,30.2"/>
	<path fill="#ffffff" d="M106.8,30.4
		c0,1.7-1.4,3.1-3.1,3.1c-1.7,0-3.1-1.4-3.1-3.1c0-1.7,1.4-3.1,3.1-3.1C105.4,27.3,106.8,28.7,106.8,30.4"/>
	<path fill="#ffffff" d="M35.2,8.7
		c-0.1,3.8-0.1,6.1-0.1,9.6c0,8.3,0.2,16.5,0.6,24.8l-0.3,0.3c-4.4,0-5.5,0-9.4,0.1l-0.3-0.3C26,36.3,26,34.6,25.9,28
		c-2.1,0-4.2-0.1-6.3-0.1c-2,0-4,0-6.3,0.1c0.1,7.1,0.1,8.9,0.4,15l-0.3,0.3c-4.6,0-5.5,0-9.4,0.1l-0.3-0.3c0.1-4.1,0.2-6.5,0.2-11
		C4.1,20,3.8,14,3.5,8.9l0.3-0.3c4.5,0,5.3,0,9.4-0.1l0.3,0.3l-0.1,13c1.8,0,3.7,0,5.5,0c2.4,0,4.7,0,7-0.1
		c-0.1-5.8-0.1-7.2-0.4-12.8l0.3-0.3c4.4,0,5.1,0,9.3-0.1L35.2,8.7z"/>
	<path fill="#ffffff" d="M65.5,36.1
		c-2,1-4.3,2.1-8.2,2.1c-3.1,0-5.3-0.9-6.5-2.7c-0.8-1-0.9-2-1.1-3l16.9-0.3l0.3-0.3c-0.1-2.4-0.1-4.9-0.8-7.3
		c-1.8-5.8-5.9-7-7.6-7.4c-1.3-0.3-2.5-0.4-3.7-0.4c-8.2,0-13.6,5.1-13.6,13.6c0,2.3,0.4,4.7,1.3,6.5c3,6.6,10.1,7.2,13.9,7.2
		c4.3,0,6.2-0.7,9-1.8l0.3-0.4l0.4-5.6L65.5,36.1z M49.7,27.3c0.2-1.5,0.5-3.6,2.5-4.8c0.6-0.4,1.4-0.5,2.1-0.5
		c1.7,0,2.8,0.8,3.3,1.7c0.7,1.1,0.8,2.3,0.8,3.4L49.7,27.3z"/>
	<path fill="#ffffff" d="M87.6,27.3
		c2.9,1,6.9,2.5,6.9,7.9c0,0.3,0,0.7-0.1,1.1c-0.9,7-8.8,7.7-12.8,7.7c-3.8,0-6-0.8-8.6-1.7l-0.3-0.4c0.2-2.5,0.3-3,0.4-5.6
		l0.5-0.2c0.8,0.6,1.2,0.9,2.1,1.4c1.9,0.9,4.1,1.4,5.5,1.4c2.9,0,4.1-1.3,4.1-2.6c0-1.8-2.3-2.5-3.7-3l-2-0.7
		c-2.5-0.9-6.8-2.5-6.8-7.7c0-2,0.7-3.4,1.4-4.3c2.7-3.7,7.8-3.9,10.4-3.9c3.4,0,5.5,0.6,8,1.2l0.3,0.3l-0.5,5.4L92,23.7
		c-1.3-0.8-3.3-2.1-6.5-2.1c-3.2,0-3.7,1.6-3.7,2.2c0,1.4,1.4,1.9,3.2,2.5L87.6,27.3z"/>
</g>
</svg>
