<?xml version="1.0" encoding="utf-8"?>
<!-- Generator: Adobe Illustrator 25.2.3, SVG Export Plug-In . SVG Version: 6.00 Build 0)  -->
<svg version="1.1" id="Calque_1" xmlns="http://www.w3.org/2000/svg" xmlns:xlink="http://www.w3.org/1999/xlink" x="0px" y="0px"
	 viewBox="0 0 250 250" style="enable-background:new 0 0 250 250;" xml:space="preserve">
<style type="text/css">
	.st0{display:none;fill:#03597C;}
	.st1{fill:#037CB8;}
	.st2{fill:#06597C;}
</style>
<path class="st0" d="M165.5,23.1l-38.2,10.2c-0.8,0-1.5,0.7-1.9,1.7c-0.2,0.4-0.6,0.4-0.7,0c-0.4-1-1.1-1.7-1.9-1.7L84.5,23.1
	c-1.3,0-2.3,1.7-2.3,3.8v196.2c0,2.1,1,3.8,2.3,3.8l38.2-10.2c0.8,0,1.5-0.7,1.9-1.7c0.2-0.4,0.6-0.4,0.7,0c0.4,1,1.1,1.7,1.9,1.7
	l38.2,10.2c1.3,0,2.3-1.7,2.3-3.8V26.9C167.8,24.8,166.7,23.1,165.5,23.1z"/>
<path class="st1" d="M244,124.2l-38.1-39.8c-0.5-0.5-1.1,0-1.1,0.8v21.1c0,0.8-0.7,1.5-1.5,1.5h-58.4c-0.7,0-1.2,0.8-1.2,1.8v30.8
	c0,1,0.5,1.8,1.2,1.8h58.4c0.8,0,1.5,0.7,1.5,1.5v21.1c0,0.8,0.6,1.3,1.1,0.8l38.1-39.8C244.4,125.4,244.4,124.6,244,124.2z"/>
<path class="st2" d="M167.8,88.5V24.9c0-3.9-1-3.9-2.3-3.9l-38.2,10.4c-1.3,0-2.3,1.7-2.3,3.9c0-2.1-1-3.9-2.3-3.9L84.5,21
	c-1.3,0-2.5,0-2.3,3.9v63.6h5.5V31.5c-0.2-3.6,0.9-3.6,2-3.6l32.3,7.7c1,0,1.7,3.2,2,5.2c0,0,0,0,0,0v168.6c0,0,0,0,0,0.1
	c-0.3,2-0.9,5-1.9,5l-32.3,7.7c-1.1,0-2,0-2-3.6v-57.1h-5.5v63.6c0,3.9,1,3.9,2.3,3.9l38.2-10.4c1.3,0,2.3-1.7,2.3-3.9
	c0,2.1,1,3.9,2.3,3.9l38.2,10.4c1.3,0,2.3,0,2.3-3.9v-63.6h-5.5v57.1c0,3.6-0.9,3.6-2,3.6l-32.3-7.7c-1,0-1.6-3-1.9-5c0,0,0,0,0-0.1
	V40.8c0,0,0,0,0,0c0.2-2,0.9-5.2,2-5.2l32.3-7.7c1.1,0,2,0,2,3.6v57.1H167.8z"/>
<path class="st1" d="M6,124.2l38.1-39.8c0.5-0.5,1.1,0,1.1,0.8v21.1c0,0.8,0.7,1.5,1.5,1.5h58.4c0.7,0,1.2,0.8,1.2,1.8v30.8
	c0,1-0.5,1.8-1.2,1.8H46.7c-0.8,0-1.5,0.7-1.5,1.5v21.1c0,0.8-0.6,1.3-1.1,0.8L6,125.8C5.6,125.4,5.6,124.6,6,124.2z"/>
</svg>
