<?xml version="1.0" encoding="UTF-8"?>
<svg id="Calque_1" data-name="Calque 1" xmlns="http://www.w3.org/2000/svg" version="1.1" viewBox="0 0 24 24">
  <defs>
    <style>
      .cls-1, .cls-2 {
        fill: #000;
        stroke-width: 0px;
      }

      .cls-2 {
        isolation: isolate;
        opacity: .7;
      }
    </style>
  </defs>
  <rect class="cls-2" x="8.9" y="4.4" width="1.3" height="15.3"/>
  <path class="cls-1" d="M20.7,3.4H3.3c-.3,0-.5.3-.5.5v16.1c0,.3.3.5.5.5h17.4c.3,0,.5-.3.5-.5V3.9c0-.3-.3-.5-.5-.5ZM4.1,4.9c0,0,0-.2.2-.2h15.5c0,0,.2,0,.2.2v6.4c0,0,0,.2-.2.2H4.2c0,0-.2,0-.2-.2v-6.4ZM19.9,19.2c0,0,0,.2-.2.2H4.2c0,0-.2,0-.2-.2v-6.4c0,0,0-.2.2-.2h15.5c0,0,.2,0,.2.2,0,0,0,6.4,0,6.4Z"/>
  <path class="cls-1" d="M6,13.4h.9l.9,4.8h-.8l-.2-1.1h-.8l-.2,1.1h-.8l1-4.8ZM6.7,16.5l-.3-2-.3,2h.7Z"/>
  <path class="cls-1" d="M6.7,10.2h0c-1,0-1.3-.6-1.3-1.6v-1.8c0-.9.3-1.5,1.3-1.5s1.3.6,1.3,1.5v1.8c0,.7-.2,1.2-.7,1.4.2.2.3.4.5.5l-.2.6c-.3-.2-.7-.6-.9-.9ZM7.1,8.9v-2.2c0-.4,0-.7-.5-.7-.4,0-.5.3-.5.7v2.2c0,.4,0,.7.5.7s.5-.3.5-.7Z"/>
  <path class="cls-1" d="M18.8,7.1h-7.6c0,0-.2,0-.2-.2v-.9c0,0,0-.2.2-.2h7.6c0,0,.2,0,.2.2v1c0,0,0,0-.2,0Z"/>
  <path class="cls-1" d="M15.9,9.6h-4.8c0,0-.2,0-.2-.2v-.9c0,0,0-.2.2-.2h4.8c0,0,.2,0,.2.2v1c0,0,0,0-.2,0Z"/>
</svg>