<?xml version="1.0" encoding="utf-8"?>
<!-- Generator: Adobe Illustrator 26.3.1, SVG Export Plug-In . SVG Version: 6.00 Build 0)  -->
<svg version="1.1" id="Calque_1" xmlns="http://www.w3.org/2000/svg" xmlns:xlink="http://www.w3.org/1999/xlink" x="0px" y="0px"
	 viewBox="0 0 24 24" style="enable-background:new 0 0 24 24;" xml:space="preserve">
<path d="M22.9,4.8l-3.2-2.6c-0.1-0.1-0.2-0.1-0.3,0l-0.6,0.7V1.6c0-0.3-0.3-0.6-0.6-0.6H2.9C2.6,1,2.3,1.2,2.3,1.6v20.9
	c0,0.3,0.3,0.6,0.6,0.6h15.4c0.3,0,0.6-0.3,0.6-0.6V10L23,5.1C23,5,23,4.9,22.9,4.8z M17.2,21.2c0,0.1-0.1,0.1-0.1,0.1h-13
	C4,21.4,4,21.3,4,21.3V2.7C4,2.7,4,2.6,4.1,2.6h13c0.1,0,0.1,0.1,0.1,0.1v2.1l-9,10.8c-0.1,0.1-0.4,3-0.6,4c0,0.1,0,0.1,0.1,0.2
	c0.1,0.1,0.1,0.1,0.2,0c0.9-0.3,3.8-1.2,3.8-1.2l5.5-6.6V21.2z M21.3,5.2L11,17.4c-0.1,0.1-1.8,0.7-1.9,0.7c-0.1,0-0.1,0-0.1,0
	c0,0,0-0.1,0-0.1c0,0,0.3-1.9,0.3-1.9L19.6,3.9c0.1-0.1,0.1-0.1,0.2-0.1L21.3,5C21.3,5.1,21.3,5.2,21.3,5.2z"/>
<path d="M14.9,5.8H6.3c0,0-0.1,0-0.1-0.1V4.3c0,0,0-0.1,0.1-0.1h8.6c0,0,0.1,0,0.1,0.1L14.9,5.8C14.9,5.7,14.9,5.8,14.9,5.8z"/>
<path d="M12.2,8.8H6.3c0,0-0.1,0-0.1-0.1V7.3c0,0,0-0.1,0.1-0.1h5.9c0,0,0.1,0,0.1,0.1L12.2,8.8C12.2,8.7,12.2,8.8,12.2,8.8z"/>
<path d="M9.6,11.8H6.3c0,0-0.1,0-0.1-0.1v-1.4c0,0,0-0.1,0.1-0.1h3.3c0,0,0.1,0,0.1,0.1L9.6,11.8C9.6,11.7,9.6,11.8,9.6,11.8z"/>
</svg>
