<?xml version="1.0" encoding="utf-8"?>
<!-- Generator: Adobe Illustrator 15.0.0, SVG Export Plug-In . SVG Version: 6.00 Build 0)  -->
<!DOCTYPE svg PUBLIC "-//W3C//DTD SVG 1.1//EN" "http://www.w3.org/Graphics/SVG/1.1/DTD/svg11.dtd">
<svg version="1.1" id="Calque_1" xmlns="http://www.w3.org/2000/svg" xmlns:xlink="http://www.w3.org/1999/xlink" x="0px" y="0px"
	 width="12px" height="12px" viewBox="0 0 12 12" enable-background="new 0 0 12 12" xml:space="preserve">
<g id="Layer_2_copy">
	<g display="none">
		<polygon display="inline" fill="#999999" points="7.16,11.752 6.513,10.931 5.897,11.752 		"/>
		<path display="inline" fill="#999999" d="M9.424,0H2.548C1.87,0,1.314,0.557,1.314,1.233v9.284c0,0.678,0.556,1.234,1.233,1.234
			h1.499c0-0.322,0-0.676,0-1.027H2.81c-0.262,0-0.496-0.235-0.496-0.499V1.5c0-0.266,0.234-0.501,0.499-0.501h6.316
			c0.266,0,0.503,0.236,0.503,0.501v8.695c0,0.267-0.239,0.5-0.503,0.5c0,0.353,0,0.706,0,1.03h0.295
			c0.677,0,1.235-0.561,1.235-1.235V1.204C10.659,0.528,10.096,0,9.424,0z"/>
	</g>
	<g id="Layer_5_copy">
		<path display="none" fill="#999999" d="M9.435,15.02L6.513,11.4L3.729,15.02c0,0,0-8.544,0-8.822
			C4.097,6.568,4.655,6.846,5.3,6.846c0.559,0,1.069-0.28,1.256-0.46c0.274,0.279,1.02,0.601,1.764,0.417
			c0.514-0.096,0.838-0.326,1.115-0.557C9.435,6.665,9.435,15.02,9.435,15.02z"/>
		<path display="none" fill="#999999" d="M11.343,5.594c-0.181-0.934-1.014-1.558-1.921-1.617c0.243-0.436,0.36-0.934,0.243-1.494
			C9.422,1.362,8.342,0.675,7.328,0.927C6.782,1.049,6.296,1.421,6.061,1.924C5.646,1.177,4.8,0.742,3.902,0.927
			c-1.083,0.25-1.743,1.37-1.501,2.424c0.059,0.189,0.117,0.375,0.242,0.562c-0.186,0-0.304,0-0.484,0.064
			C1.076,4.222,0.416,5.342,0.658,6.404c0.186,0.933,1.025,1.618,1.917,1.618c-0.24,0.438-0.357,0.938-0.24,1.492
			c0.24,1.124,1.321,1.807,2.345,1.563c0.538-0.132,1.022-0.505,1.261-1c0.423,0.746,1.264,1.184,2.167,1
			c1.07-0.254,1.739-1.374,1.499-2.43C9.541,8.459,9.489,8.272,9.362,8.084c0.127,0,0.303,0,0.42-0.063
			C10.931,7.77,11.583,6.714,11.343,5.594z M6.12,9.826C5.885,9.64,3.179,7.958,2.819,7.836c0.06-0.747,0.06-3.053,0-3.673
			c0.36-0.189,2.708-1.557,3.242-1.93c0.419,0.312,2.582,1.618,3.184,1.93c0,0.618-0.057,3.421,0,3.859
			C8.582,8.33,6.725,9.454,6.12,9.826z"/>
		<polygon fill="#A0D5EA" points="4.182,9.148 2.364,6 4.182,2.852 7.818,2.852 9.636,6 7.818,9.148 		"/>
		<path display="none" fill="#999999" d="M6,2.375C3.998,2.375,2.375,3.998,2.375,6S3.998,9.625,6,9.625S9.625,8.002,9.625,6
			S8.002,2.375,6,2.375z M6,8.984C4.352,8.984,3.016,7.647,3.016,6c0-1.648,1.336-2.984,2.984-2.984
			c1.647,0,2.984,1.336,2.984,2.984C8.984,7.647,7.647,8.984,6,8.984z"/>
		<path display="none" fill="none" stroke="#999999" stroke-width="0.5" stroke-miterlimit="10" d="M6.762,9.152
			C5.065,9.535,3.371,8.441,2.986,6.711c-0.39-1.73,0.669-3.44,2.368-3.822c1.703-0.381,3.39,0.713,3.778,2.443
			C9.521,7.063,8.459,8.772,6.762,9.152z"/>
	</g>
</g>
<circle display="none" opacity="0.67" fill="#7E9CA5" cx="6" cy="2.852" r="1.836"/>
<circle display="none" opacity="0.67" fill="#7E9CA5" cx="6" cy="9.148" r="1.836"/>
<circle display="none" opacity="0.67" fill="#7E9CA5" cx="8.73" cy="4.44" r="1.836"/>
<circle opacity="0.67" fill="#7E9CA5" cx="8.715" cy="7.556" r="1.836"/>
</svg>
