<?xml version="1.0" encoding="utf-8"?>
<!-- Generator: Adobe Illustrator 15.0.0, SVG Export Plug-In . SVG Version: 6.00 Build 0)  -->
<!DOCTYPE svg PUBLIC "-//W3C//DTD SVG 1.1//EN" "http://www.w3.org/Graphics/SVG/1.1/DTD/svg11.dtd">
<svg version="1.1" id="Calque_1" xmlns="http://www.w3.org/2000/svg" xmlns:xlink="http://www.w3.org/1999/xlink" x="0px" y="0px"
	 width="12px" height="12px" viewBox="0 0 12 12" enable-background="new 0 0 12 12" xml:space="preserve">
<path fill="#007CB7" d="M8.854,7.923C8.688,7.964,8.518,7.99,8.34,7.99c-0.096,0-0.188-0.017-0.279-0.028
	C7.896,8.413,7.582,8.787,7.187,9.047c0.595,0.651,1.71,1.874,1.71,1.874L8.762,9.334l1.604,0.247
	C10.365,9.581,9.465,8.593,8.854,7.923z"/>
<path fill="#007CB7" d="M5.992,9.415c-0.952,0-1.756-0.605-2.067-1.449C3.847,7.974,3.772,7.99,3.692,7.99
	c-0.042,0-0.081-0.011-0.122-0.013c-0.515,0.8-1.487,2.308-1.487,2.308L4.08,9.951l0.583,1.996c0,0,1.263-1.957,1.667-2.587
	C6.218,9.379,6.11,9.415,5.992,9.415z"/>
<path fill="#007CB7" d="M9.118,4.307c0.435-0.262,0.78-0.782,0.78-1.389c0-0.869-0.695-1.563-1.563-1.563
	c-0.261,0-0.521,0.086-0.781,0.26c0-0.868-0.694-1.563-1.563-1.563c-0.867,0-1.562,0.695-1.562,1.563
	C4.168,1.441,3.908,1.441,3.648,1.441c-0.869,0-1.563,0.695-1.563,1.563c0,0.608,0.347,1.129,0.781,1.389
	c-0.434,0.261-0.781,0.782-0.781,1.39c0,0.869,0.694,1.561,1.563,1.561c0.259,0,0.52-0.087,0.781-0.172
	c0,0.866,0.695,1.563,1.562,1.563c0.869,0,1.563-0.696,1.563-1.563c0.261,0.172,0.521,0.262,0.781,0.262
	c0.867,0,1.563-0.696,1.563-1.565C9.898,5.087,9.638,4.567,9.118,4.307z M5.992,6.929c-1.4,0-2.535-1.135-2.535-2.536
	c0-1.4,1.135-2.535,2.535-2.535c1.401,0,2.536,1.135,2.536,2.535C8.527,5.794,7.393,6.929,5.992,6.929z"/>
<circle fill="#007CB7" cx="5.992" cy="4.393" r="1.903"/>
<polygon opacity="0.73" fill="#89CEE8" points="6,2.793 6.44,3.687 7.427,3.83 6.713,4.524 6.882,5.507 6,5.043 5.118,5.507 
	5.287,4.524 4.573,3.83 5.559,3.687 "/>
<circle display="none" fill="#007CB7" cx="5.992" cy="4.393" r="1.903"/>
<polygon display="none" fill="#FFFFFF" points="6,1.864 6.742,3.369 8.404,3.61 7.201,4.781 7.486,6.437 6,5.655 4.514,6.437 
	4.798,4.781 3.595,3.61 5.257,3.369 "/>
</svg>
