<?xml version="1.0" encoding="utf-8"?>
<!-- Generator: Adobe Illustrator 15.0.0, SVG Export Plug-In . SVG Version: 6.00 Build 0)  -->
<!DOCTYPE svg PUBLIC "-//W3C//DTD SVG 1.1//EN" "http://www.w3.org/Graphics/SVG/1.1/DTD/svg11.dtd">
<svg version="1.1" id="Calque_1" xmlns="http://www.w3.org/2000/svg" xmlns:xlink="http://www.w3.org/1999/xlink" x="0px" y="0px"
	 width="12px" height="12px" viewBox="0 0 12 12" enable-background="new 0 0 12 12" xml:space="preserve">
<path fill="#FFFFFF" d="M5.3,12H0V2.6L2.6,0H10v3.8l-1-1V1H4v3H1v7h4C5,11.4,5.1,11.7,5.3,12z"/>
<path fill="#FFFFFF" d="M11.743,8.05l-3.5,3.601c-0.4,0.399-1,0.399-1.4,0l-3.5-3.7c-0.4-0.4-0.3-0.9,0.3-0.9h2.3v-3
	c0-0.5,0.5-1,1.1-1h1c0.5,0,0.9,0.5,0.9,1v3h2.5C11.943,7.05,12.143,7.65,11.743,8.05z"/>
</svg>
