<?xml version="1.0" encoding="utf-8"?>
<!-- Generator: Adobe Illustrator 15.0.0, SVG Export Plug-In . SVG Version: 6.00 Build 0)  -->
<!DOCTYPE svg PUBLIC "-//W3C//DTD SVG 1.1//EN" "http://www.w3.org/Graphics/SVG/1.1/DTD/svg11.dtd">
<svg version="1.1" id="Calque_1" xmlns="http://www.w3.org/2000/svg" xmlns:xlink="http://www.w3.org/1999/xlink" x="0px" y="0px"
	 width="12px" height="12px" viewBox="0 0 12 12" enable-background="new 0 0 12 12" xml:space="preserve">
<path fill="#999999" d="M8.283,7.277H7.795L7.612,7.108c0.61-0.626,0.977-1.477,0.977-2.384c0-2.042-1.768-3.689-3.958-3.689
	c-2.192,0-3.958,1.647-3.958,3.689c0,2.042,1.766,3.687,3.958,3.687c0.973,0,1.886-0.341,2.556-0.908L7.37,7.675V8.13l3.044,2.835
	l0.913-0.851L8.283,7.277z M4.631,7.277c-1.522,0-2.74-1.135-2.74-2.553c0-1.42,1.217-2.553,2.74-2.553
	c1.521,0,2.739,1.133,2.739,2.553C7.37,6.143,6.092,7.277,4.631,7.277z"/>
</svg>
